<?xml version="1.0" encoding="UTF-8"?>
<svg id="_图层_2" data-name="图层 2" xmlns="http://www.w3.org/2000/svg" xmlns:xlink="http://www.w3.org/1999/xlink" viewBox="0 0 918.72 379.88">
  <defs>
    <style>
      .cls-1 {
        stroke: #36f;
        stroke-width: 2.13px;
      }

      .cls-1, .cls-2, .cls-3, .cls-4 {
        stroke-linejoin: round;
      }

      .cls-1, .cls-2, .cls-3, .cls-4, .cls-5 {
        fill: none;
      }

      .cls-6 {
        fill: #00c094;
      }

      .cls-7 {
        fill: #4d4d4d;
      }

      .cls-7, .cls-8, .cls-9, .cls-10, .cls-11, .cls-12, .cls-13 {
        font-family: ArialMT, Arial;
      }

      .cls-7, .cls-12 {
        font-size: 14px;
      }

      .cls-8 {
        font-size: 24px;
      }

      .cls-14 {
        fill: #53b400;
      }

      .cls-15 {
        letter-spacing: -.03em;
      }

      .cls-16 {
        letter-spacing: 0em;
      }

      .cls-17 {
        clip-path: url(#clippath-1);
      }

      .cls-2, .cls-4 {
        stroke: #333;
        stroke-width: 1.07px;
      }

      .cls-18 {
        fill: #fb61d7;
      }

      .cls-9 {
        font-size: 21.14px;
      }

      .cls-3 {
        stroke: #000;
        stroke-width: .71px;
      }

      .cls-3, .cls-4 {
        stroke-linecap: round;
      }

      .cls-19 {
        fill: #00b6eb;
      }

      .cls-10 {
        font-size: 21.14px;
      }

      .cls-20 {
        fill: #999;
        opacity: .4;
      }

      .cls-21 {
        clip-path: url(#clippath);
      }

      .cls-11 {
        font-size: 21.14px;
      }

      .cls-22 {
        fill: #a58aff;
      }

      .cls-13 {
        font-size: 21.14px;
      }

      .cls-23 {
        fill: #f8766d;
      }

      .cls-24 {
        fill: #c49a00;
      }
    </style>
    <clipPath id="clippath">
      <rect class="cls-5" x="467.72" width="353.2" height="333.43"/>
    </clipPath>
    <clipPath id="clippath-1">
      <rect class="cls-5" x="50.81" y=".24" width="353.2" height="333.43"/>
    </clipPath>
  </defs>
  <g id="_图层_1-2" data-name="图层 1">
    <g class="cls-21">
      <path class="cls-18" d="M667.59,179.92c0-2.43,1.99-4.41,4.41-4.41s4.41,1.98,4.41,4.41-1.98,4.4-4.41,4.4-4.41-1.98-4.41-4.4"/>
      <path class="cls-3" d="M667.59,179.92c0-2.43,1.99-4.41,4.41-4.41s4.41,1.98,4.41,4.41-1.98,4.4-4.41,4.4-4.41-1.98-4.41-4.4"/>
      <path class="cls-6" d="M567.95,244.06c0-2.42,1.98-4.41,4.4-4.41s4.41,1.99,4.41,4.41-1.98,4.41-4.41,4.41-4.4-1.98-4.4-4.41"/>
      <path class="cls-3" d="M567.95,244.06c0-2.42,1.98-4.41,4.4-4.41s4.41,1.99,4.41,4.41-1.98,4.41-4.41,4.41-4.4-1.98-4.4-4.41"/>
      <path class="cls-18" d="M561.2,237.77c0-2.42,1.98-4.41,4.41-4.41s4.41,1.99,4.41,4.41-1.99,4.41-4.41,4.41-4.41-1.98-4.41-4.41"/>
      <path class="cls-3" d="M561.2,237.77c0-2.42,1.98-4.41,4.41-4.41s4.41,1.99,4.41,4.41-1.99,4.41-4.41,4.41-4.41-1.98-4.41-4.41"/>
      <path class="cls-18" d="M656.52,163.56c0-2.42,1.99-4.4,4.41-4.4s4.41,1.98,4.41,4.4-1.98,4.41-4.41,4.41-4.41-1.98-4.41-4.41"/>
      <path class="cls-3" d="M656.52,163.56c0-2.42,1.99-4.4,4.41-4.4s4.41,1.98,4.41,4.4-1.98,4.41-4.41,4.41-4.41-1.98-4.41-4.41"/>
      <path class="cls-22" d="M562.41,227.71c0-2.42,1.98-4.41,4.41-4.41s4.41,1.99,4.41,4.41-1.99,4.41-4.41,4.41-4.41-1.98-4.41-4.41"/>
      <path class="cls-3" d="M562.41,227.71c0-2.42,1.98-4.41,4.41-4.41s4.41,1.99,4.41,4.41-1.99,4.41-4.41,4.41-4.41-1.98-4.41-4.41"/>
      <path class="cls-22" d="M584.55,206.33c0-2.43,1.99-4.41,4.41-4.41s4.41,1.98,4.41,4.41-1.98,4.41-4.41,4.41-4.41-1.99-4.41-4.41"/>
      <path class="cls-3" d="M584.55,206.33c0-2.43,1.99-4.41,4.41-4.41s4.41,1.98,4.41,4.41-1.98,4.41-4.41,4.41-4.41-1.99-4.41-4.41"/>
      <path class="cls-18" d="M544.71,246.58c0-2.43,1.98-4.41,4.4-4.41s4.41,1.98,4.41,4.41-1.98,4.41-4.41,4.41-4.4-1.99-4.4-4.41"/>
      <path class="cls-3" d="M544.71,246.58c0-2.43,1.98-4.41,4.4-4.41s4.41,1.98,4.41,4.41-1.98,4.41-4.41,4.41-4.4-1.99-4.4-4.41"/>
      <path class="cls-22" d="M569.44,192.49c0-2.42,1.99-4.41,4.41-4.41s4.41,1.99,4.41,4.41-1.98,4.41-4.41,4.41-4.41-1.98-4.41-4.41"/>
      <path class="cls-3" d="M569.44,192.49c0-2.42,1.99-4.41,4.41-4.41s4.41,1.99,4.41,4.41-1.98,4.41-4.41,4.41-4.41-1.98-4.41-4.41"/>
      <path class="cls-18" d="M556.87,240.29c0-2.43,1.99-4.41,4.41-4.41s4.41,1.98,4.41,4.41-1.98,4.41-4.41,4.41-4.41-1.99-4.41-4.41"/>
      <path class="cls-3" d="M556.87,240.29c0-2.43,1.99-4.41,4.41-4.41s4.41,1.98,4.41,4.41-1.98,4.41-4.41,4.41-4.41-1.99-4.41-4.41"/>
      <path class="cls-6" d="M606.7,206.33c0-2.43,1.98-4.41,4.41-4.41s4.41,1.98,4.41,4.41-1.99,4.41-4.41,4.41-4.41-1.99-4.41-4.41"/>
      <path class="cls-3" d="M606.7,206.33c0-2.43,1.98-4.41,4.41-4.41s4.41,1.98,4.41,4.41-1.99,4.41-4.41,4.41-4.41-1.99-4.41-4.41"/>
      <path class="cls-18" d="M590.09,251.61c0-2.43,1.98-4.41,4.41-4.41s4.41,1.98,4.41,4.41-1.99,4.41-4.41,4.41-4.41-1.99-4.41-4.41"/>
      <path class="cls-3" d="M590.09,251.61c0-2.43,1.98-4.41,4.41-4.41s4.41,1.98,4.41,4.41-1.99,4.41-4.41,4.41-4.41-1.99-4.41-4.41"/>
      <path class="cls-18" d="M569.44,195.01c0-2.43,1.99-4.41,4.41-4.41s4.41,1.98,4.41,4.41-1.98,4.41-4.41,4.41-4.41-1.99-4.41-4.41"/>
      <path class="cls-3" d="M569.44,195.01c0-2.43,1.99-4.41,4.41-4.41s4.41,1.98,4.41,4.41-1.98,4.41-4.41,4.41-4.41-1.99-4.41-4.41"/>
      <path class="cls-22" d="M562.41,245.32c0-2.43,1.98-4.41,4.41-4.41s4.41,1.98,4.41,4.41-1.99,4.41-4.41,4.41-4.41-1.99-4.41-4.41"/>
      <path class="cls-3" d="M562.41,245.32c0-2.43,1.98-4.41,4.41-4.41s4.41,1.98,4.41,4.41-1.99,4.41-4.41,4.41-4.41-1.99-4.41-4.41"/>
      <path class="cls-14" d="M512.58,295.63c0-2.43,1.99-4.41,4.41-4.41s4.41,1.98,4.41,4.41-1.98,4.41-4.41,4.41-4.41-1.99-4.41-4.41"/>
      <path class="cls-3" d="M512.58,295.63c0-2.43,1.99-4.41,4.41-4.41s4.41,1.98,4.41,4.41-1.98,4.41-4.41,4.41-4.41-1.99-4.41-4.41"/>
      <path class="cls-23" d="M540.27,240.29c0-2.43,1.98-4.41,4.4-4.41s4.41,1.98,4.41,4.41-1.98,4.41-4.41,4.41-4.4-1.99-4.4-4.41"/>
      <path class="cls-3" d="M540.27,240.29c0-2.43,1.98-4.41,4.4-4.41s4.41,1.98,4.41,4.41-1.98,4.41-4.41,4.41-4.4-1.99-4.4-4.41"/>
      <path class="cls-14" d="M717.88,140.93c0-2.43,1.98-4.41,4.41-4.41s4.41,1.98,4.41,4.41-1.99,4.4-4.41,4.4-4.41-1.98-4.41-4.4"/>
      <path class="cls-3" d="M717.88,140.93c0-2.43,1.98-4.41,4.41-4.41s4.41,1.98,4.41,4.41-1.99,4.4-4.41,4.4-4.41-1.98-4.41-4.4"/>
      <path class="cls-24" d="M667.59,183.69c0-2.43,1.99-4.41,4.41-4.41s4.41,1.98,4.41,4.41-1.98,4.41-4.41,4.41-4.41-1.99-4.41-4.41"/>
      <path class="cls-3" d="M667.59,183.69c0-2.43,1.99-4.41,4.41-4.41s4.41,1.98,4.41,4.41-1.98,4.41-4.41,4.41-4.41-1.99-4.41-4.41"/>
      <path class="cls-14" d="M684.2,169.85c0-2.42,1.99-4.41,4.41-4.41s4.41,1.99,4.41,4.41-1.98,4.41-4.41,4.41-4.41-1.98-4.41-4.41"/>
      <path class="cls-3" d="M684.2,169.85c0-2.42,1.99-4.41,4.41-4.41s4.41,1.99,4.41,4.41-1.98,4.41-4.41,4.41-4.41-1.98-4.41-4.41"/>
      <path class="cls-24" d="M684.2,119.54c0-2.42,1.99-4.41,4.41-4.41s4.41,1.99,4.41,4.41-1.98,4.41-4.41,4.41-4.41-1.98-4.41-4.41"/>
      <path class="cls-3" d="M684.2,119.54c0-2.42,1.99-4.41,4.41-4.41s4.41,1.99,4.41,4.41-1.98,4.41-4.41,4.41-4.41-1.98-4.41-4.41"/>
      <path class="cls-14" d="M610.68,178.66c0-2.43,1.98-4.41,4.41-4.41s4.4,1.98,4.4,4.41-1.98,4.41-4.4,4.41-4.41-1.99-4.41-4.41"/>
      <path class="cls-3" d="M610.68,178.66c0-2.43,1.98-4.41,4.41-4.41s4.4,1.98,4.4,4.41-1.98,4.41-4.4,4.41-4.41-1.99-4.41-4.41"/>
      <path class="cls-23" d="M678.67,167.34c0-2.43,1.98-4.41,4.41-4.41s4.4,1.98,4.4,4.41-1.98,4.41-4.4,4.41-4.41-1.99-4.41-4.41"/>
      <path class="cls-3" d="M678.67,167.34c0-2.43,1.98-4.41,4.41-4.41s4.4,1.98,4.4,4.41-1.98,4.41-4.4,4.41-4.41-1.99-4.41-4.41"/>
      <path class="cls-23" d="M750.87,125.83c0-2.42,1.98-4.41,4.4-4.41s4.41,1.99,4.41,4.41-1.98,4.41-4.41,4.41-4.4-1.98-4.4-4.41"/>
      <path class="cls-3" d="M750.87,125.83c0-2.42,1.98-4.41,4.4-4.41s4.41,1.99,4.41,4.41-1.98,4.41-4.41,4.41-4.4-1.98-4.4-4.41"/>
      <path class="cls-19" d="M701.39,158.53c0-2.42,1.98-4.41,4.41-4.41s4.41,1.99,4.41,4.41-1.99,4.41-4.41,4.41-4.41-1.98-4.41-4.41"/>
      <path class="cls-3" d="M701.39,158.53c0-2.42,1.98-4.41,4.41-4.41s4.41,1.99,4.41,4.41-1.99,4.41-4.41,4.41-4.41-1.98-4.41-4.41"/>
      <path class="cls-14" d="M689.74,168.6c0-2.43,1.98-4.41,4.41-4.41s4.41,1.98,4.41,4.41-1.99,4.4-4.41,4.4-4.41-1.98-4.41-4.4"/>
      <path class="cls-3" d="M689.74,168.6c0-2.43,1.98-4.41,4.41-4.41s4.41,1.98,4.41,4.41-1.99,4.4-4.41,4.4-4.41-1.98-4.41-4.4"/>
      <path class="cls-19" d="M684.89,172.37c0-2.43,1.99-4.41,4.41-4.41s4.41,1.98,4.41,4.41-1.98,4.41-4.41,4.41-4.41-1.99-4.41-4.41"/>
      <path class="cls-3" d="M684.89,172.37c0-2.43,1.99-4.41,4.41-4.41s4.41,1.98,4.41,4.41-1.98,4.41-4.41,4.41-4.41-1.99-4.41-4.41"/>
      <path class="cls-22" d="M584.55,217.65c0-2.43,1.99-4.41,4.41-4.41s4.41,1.98,4.41,4.41-1.98,4.41-4.41,4.41-4.41-1.99-4.41-4.41"/>
      <path class="cls-3" d="M584.55,217.65c0-2.43,1.99-4.41,4.41-4.41s4.41,1.98,4.41,4.41-1.98,4.41-4.41,4.41-4.41-1.99-4.41-4.41"/>
      <path class="cls-24" d="M750.87,152.24c0-2.42,1.98-4.4,4.4-4.4s4.41,1.98,4.41,4.4-1.98,4.41-4.41,4.41-4.4-1.98-4.4-4.41"/>
      <path class="cls-3" d="M750.87,152.24c0-2.42,1.98-4.4,4.4-4.4s4.41,1.98,4.41,4.4-1.98,4.41-4.41,4.41-4.4-1.98-4.4-4.41"/>
      <path class="cls-19" d="M767.36,157.28c0-2.43,1.98-4.41,4.41-4.41s4.41,1.98,4.41,4.41-1.99,4.4-4.41,4.4-4.41-1.98-4.41-4.4"/>
      <path class="cls-3" d="M767.36,157.28c0-2.43,1.98-4.41,4.41-4.41s4.41,1.98,4.41,4.41-1.99,4.4-4.41,4.4-4.41-1.98-4.41-4.4"/>
      <path class="cls-19" d="M767.36,88.1c0-2.43,1.98-4.41,4.41-4.41s4.41,1.98,4.41,4.41-1.99,4.41-4.41,4.41-4.41-1.99-4.41-4.41"/>
      <path class="cls-3" d="M767.36,88.1c0-2.43,1.98-4.41,4.41-4.41s4.41,1.98,4.41,4.41-1.99,4.41-4.41,4.41-4.41-1.99-4.41-4.41"/>
      <path class="cls-24" d="M667.59,189.98c0-2.43,1.99-4.41,4.41-4.41s4.41,1.98,4.41,4.41-1.98,4.41-4.41,4.41-4.41-1.99-4.41-4.41"/>
      <path class="cls-3" d="M667.59,189.98c0-2.43,1.99-4.41,4.41-4.41s4.41,1.98,4.41,4.41-1.98,4.41-4.41,4.41-4.41-1.99-4.41-4.41"/>
      <path class="cls-24" d="M668.4,168.6c0-2.43,1.99-4.41,4.41-4.41s4.41,1.98,4.41,4.41-1.98,4.4-4.41,4.4-4.41-1.98-4.41-4.4"/>
      <path class="cls-3" d="M668.4,168.6c0-2.43,1.99-4.41,4.41-4.41s4.41,1.98,4.41,4.41-1.98,4.4-4.41,4.4-4.41-1.98-4.41-4.4"/>
      <path class="cls-19" d="M695.27,123.32c0-2.43,1.99-4.41,4.41-4.41s4.41,1.98,4.41,4.41-1.98,4.41-4.41,4.41-4.41-1.99-4.41-4.41"/>
      <path class="cls-3" d="M695.27,123.32c0-2.43,1.99-4.41,4.41-4.41s4.41,1.98,4.41,4.41-1.98,4.41-4.41,4.41-4.41-1.99-4.41-4.41"/>
      <path class="cls-19" d="M711.88,129.61c0-2.43,1.99-4.41,4.41-4.41s4.41,1.98,4.41,4.41-1.98,4.4-4.41,4.4-4.41-1.98-4.41-4.4"/>
      <path class="cls-3" d="M711.88,129.61c0-2.43,1.99-4.41,4.41-4.41s4.41,1.98,4.41,4.41-1.98,4.4-4.41,4.4-4.41-1.98-4.41-4.4"/>
      <path class="cls-24" d="M750.87,147.21c0-2.42,1.98-4.41,4.4-4.41s4.41,1.99,4.41,4.41-1.98,4.41-4.41,4.41-4.4-1.98-4.4-4.41"/>
      <path class="cls-3" d="M750.87,147.21c0-2.42,1.98-4.41,4.4-4.41s4.41,1.99,4.41,4.41-1.98,4.41-4.41,4.41-4.4-1.98-4.4-4.41"/>
      <path class="cls-19" d="M706.35,144.7c0-2.43,1.98-4.41,4.41-4.41s4.4,1.98,4.4,4.41-1.98,4.41-4.4,4.41-4.41-1.99-4.41-4.41"/>
      <path class="cls-3" d="M706.35,144.7c0-2.43,1.98-4.41,4.41-4.41s4.4,1.98,4.4,4.41-1.98,4.41-4.4,4.41-4.41-1.99-4.41-4.41"/>
      <path class="cls-24" d="M573.48,251.61c0-2.43,1.99-4.41,4.41-4.41s4.41,1.98,4.41,4.41-1.98,4.41-4.41,4.41-4.41-1.99-4.41-4.41"/>
      <path class="cls-3" d="M573.48,251.61c0-2.43,1.99-4.41,4.41-4.41s4.41,1.98,4.41,4.41-1.98,4.41-4.41,4.41-4.41-1.99-4.41-4.41"/>
      <path class="cls-19" d="M800.34,112c0-2.43,1.99-4.41,4.41-4.41s4.41,1.98,4.41,4.41-1.98,4.41-4.41,4.41-4.41-1.99-4.41-4.41"/>
      <path class="cls-3" d="M800.34,112c0-2.43,1.99-4.41,4.41-4.41s4.41,1.98,4.41,4.41-1.98,4.41-4.41,4.41-4.41-1.99-4.41-4.41"/>
      <path class="cls-14" d="M673.13,156.02c0-2.43,1.98-4.41,4.41-4.41s4.41,1.98,4.41,4.41-1.99,4.41-4.41,4.41-4.41-1.99-4.41-4.41"/>
      <path class="cls-3" d="M673.13,156.02c0-2.43,1.98-4.41,4.41-4.41s4.41,1.98,4.41,4.41-1.99,4.41-4.41,4.41-4.41-1.99-4.41-4.41"/>
      <path class="cls-24" d="M701.39,161.05c0-2.43,1.98-4.41,4.41-4.41s4.41,1.98,4.41,4.41-1.99,4.41-4.41,4.41-4.41-1.99-4.41-4.41"/>
      <path class="cls-3" d="M701.39,161.05c0-2.43,1.98-4.41,4.41-4.41s4.41,1.98,4.41,4.41-1.99,4.41-4.41,4.41-4.41-1.99-4.41-4.41"/>
      <path class="cls-24" d="M693.14,163.56c0-2.42,1.99-4.4,4.41-4.4s4.41,1.98,4.41,4.4-1.99,4.41-4.41,4.41-4.41-1.98-4.41-4.41"/>
      <path class="cls-3" d="M693.14,163.56c0-2.42,1.99-4.4,4.41-4.4s4.41,1.98,4.41,4.4-1.99,4.41-4.41,4.41-4.41-1.98-4.41-4.41"/>
      <path class="cls-22" d="M717.42,150.99c0-2.43,1.98-4.41,4.41-4.41s4.41,1.98,4.41,4.41-1.99,4.41-4.41,4.41-4.41-1.99-4.41-4.41"/>
      <path class="cls-3" d="M717.42,150.99c0-2.43,1.98-4.41,4.41-4.41s4.41,1.98,4.41,4.41-1.99,4.41-4.41,4.41-4.41-1.99-4.41-4.41"/>
      <path class="cls-14" d="M745.1,110.74c0-2.43,1.98-4.41,4.41-4.41s4.41,1.98,4.41,4.41-1.99,4.41-4.41,4.41-4.41-1.99-4.41-4.41"/>
      <path class="cls-3" d="M745.1,110.74c0-2.43,1.98-4.41,4.41-4.41s4.41,1.98,4.41,4.41-1.99,4.41-4.41,4.41-4.41-1.99-4.41-4.41"/>
      <path class="cls-19" d="M695.27,139.67c0-2.43,1.99-4.41,4.41-4.41s4.41,1.98,4.41,4.41-1.98,4.41-4.41,4.41-4.41-1.99-4.41-4.41"/>
      <path class="cls-3" d="M695.27,139.67c0-2.43,1.99-4.41,4.41-4.41s4.41,1.98,4.41,4.41-1.98,4.41-4.41,4.41-4.41-1.99-4.41-4.41"/>
      <path class="cls-22" d="M706.35,153.5c0-2.42,1.98-4.41,4.41-4.41s4.4,1.99,4.4,4.41-1.98,4.41-4.4,4.41-4.41-1.98-4.41-4.41"/>
      <path class="cls-3" d="M706.35,153.5c0-2.42,1.98-4.41,4.41-4.41s4.4,1.99,4.4,4.41-1.98,4.41-4.4,4.41-4.41-1.98-4.41-4.41"/>
      <path class="cls-24" d="M693.14,123.32c0-2.43,1.99-4.41,4.41-4.41s4.41,1.98,4.41,4.41-1.99,4.41-4.41,4.41-4.41-1.99-4.41-4.41"/>
      <path class="cls-3" d="M693.14,123.32c0-2.43,1.99-4.41,4.41-4.41s4.41,1.98,4.41,4.41-1.99,4.41-4.41,4.41-4.41-1.99-4.41-4.41"/>
      <path class="cls-14" d="M700.81,140.93c0-2.43,1.98-4.41,4.41-4.41s4.41,1.98,4.41,4.41-1.99,4.4-4.41,4.4-4.41-1.98-4.41-4.4"/>
      <path class="cls-3" d="M700.81,140.93c0-2.43,1.98-4.41,4.41-4.41s4.41,1.98,4.41,4.41-1.99,4.4-4.41,4.4-4.41-1.98-4.41-4.4"/>
      <path class="cls-14" d="M556.87,241.55c0-2.43,1.99-4.41,4.41-4.41s4.41,1.98,4.41,4.41-1.98,4.4-4.41,4.4-4.41-1.98-4.41-4.4"/>
      <path class="cls-3" d="M556.87,241.55c0-2.43,1.99-4.41,4.41-4.41s4.41,1.98,4.41,4.41-1.98,4.4-4.41,4.4-4.41-1.98-4.41-4.4"/>
      <path class="cls-24" d="M551.34,197.52c0-2.42,1.98-4.4,4.41-4.4s4.4,1.98,4.4,4.4-1.98,4.41-4.4,4.41-4.41-1.98-4.41-4.41"/>
      <path class="cls-3" d="M551.34,197.52c0-2.42,1.98-4.4,4.41-4.4s4.4,1.98,4.4,4.4-1.98,4.41-4.4,4.41-4.41-1.98-4.41-4.41"/>
      <path class="cls-24" d="M577.69,244.06c0-2.42,1.99-4.41,4.41-4.41s4.41,1.99,4.41,4.41-1.99,4.41-4.41,4.41-4.41-1.98-4.41-4.41"/>
      <path class="cls-3" d="M577.69,244.06c0-2.42,1.99-4.41,4.41-4.41s4.41,1.99,4.41,4.41-1.99,4.41-4.41,4.41-4.41-1.98-4.41-4.41"/>
      <path class="cls-24" d="M585.94,213.88c0-2.43,1.98-4.41,4.41-4.41s4.41,1.98,4.41,4.41-1.99,4.4-4.41,4.4-4.41-1.98-4.41-4.4"/>
      <path class="cls-3" d="M585.94,213.88c0-2.43,1.98-4.41,4.41-4.41s4.41,1.98,4.41,4.41-1.99,4.4-4.41,4.4-4.41-1.98-4.41-4.4"/>
      <path class="cls-14" d="M595.63,188.72c0-2.42,1.98-4.41,4.4-4.41s4.41,1.99,4.41,4.41-1.98,4.41-4.41,4.41-4.4-1.99-4.4-4.41"/>
      <path class="cls-3" d="M595.63,188.72c0-2.42,1.98-4.41,4.4-4.41s4.41,1.99,4.41,4.41-1.98,4.41-4.41,4.41-4.4-1.99-4.4-4.41"/>
      <path class="cls-22" d="M585.94,231.48c0-2.42,1.98-4.41,4.41-4.41s4.41,1.99,4.41,4.41-1.99,4.41-4.41,4.41-4.41-1.98-4.41-4.41"/>
      <path class="cls-3" d="M585.94,231.48c0-2.42,1.98-4.41,4.41-4.41s4.41,1.99,4.41,4.41-1.99,4.41-4.41,4.41-4.41-1.98-4.41-4.41"/>
      <path class="cls-24" d="M767.24,125.83c0-2.42,1.99-4.41,4.41-4.41s4.41,1.99,4.41,4.41-1.98,4.41-4.41,4.41-4.41-1.98-4.41-4.41"/>
      <path class="cls-3" d="M767.24,125.83c0-2.42,1.99-4.41,4.41-4.41s4.41,1.99,4.41,4.41-1.98,4.41-4.41,4.41-4.41-1.98-4.41-4.41"/>
      <path class="cls-19" d="M722.96,156.02c0-2.43,1.98-4.41,4.4-4.41s4.41,1.98,4.41,4.41-1.98,4.41-4.41,4.41-4.4-1.99-4.4-4.41"/>
      <path class="cls-3" d="M722.96,156.02c0-2.43,1.98-4.41,4.4-4.41s4.41,1.98,4.41,4.41-1.98,4.41-4.41,4.41-4.4-1.99-4.4-4.41"/>
      <path class="cls-23" d="M750.64,114.51c0-2.42,1.98-4.41,4.4-4.41s4.41,1.99,4.41,4.41-1.98,4.41-4.41,4.41-4.4-1.98-4.4-4.41"/>
      <path class="cls-3" d="M750.64,114.51c0-2.42,1.98-4.41,4.4-4.41s4.41,1.99,4.41,4.41-1.98,4.41-4.41,4.41-4.4-1.98-4.4-4.41"/>
      <path class="cls-23" d="M800.46,51.62c0-2.42,1.98-4.4,4.41-4.4s4.41,1.98,4.41,4.4-1.99,4.41-4.41,4.41-4.41-1.98-4.41-4.41"/>
      <path class="cls-3" d="M800.46,51.62c0-2.42,1.98-4.4,4.41-4.4s4.41,1.98,4.41,4.4-1.99,4.41-4.41,4.41-4.41-1.98-4.41-4.41"/>
      <path class="cls-23" d="M623.31,200.04c0-2.43,1.98-4.41,4.4-4.41s4.41,1.98,4.41,4.41-1.98,4.41-4.41,4.41-4.4-1.99-4.4-4.41"/>
      <path class="cls-3" d="M623.31,200.04c0-2.43,1.98-4.41,4.4-4.41s4.41,1.98,4.41,4.41-1.98,4.41-4.41,4.41-4.4-1.99-4.4-4.41"/>
      <path class="cls-23" d="M700.81,186.2c0-2.42,1.98-4.4,4.41-4.4s4.41,1.98,4.41,4.4-1.99,4.41-4.41,4.41-4.41-1.98-4.41-4.41"/>
      <path class="cls-3" d="M700.81,186.2c0-2.42,1.98-4.4,4.41-4.4s4.41,1.98,4.41,4.4-1.99,4.41-4.41,4.41-4.41-1.98-4.41-4.41"/>
      <path class="cls-23" d="M734.37,135.89c0-2.42,1.99-4.4,4.41-4.4s4.41,1.98,4.41,4.4-1.98,4.41-4.41,4.41-4.41-1.98-4.41-4.41"/>
      <path class="cls-3" d="M734.37,135.89c0-2.42,1.99-4.4,4.41-4.4s4.41,1.98,4.41,4.4-1.98,4.41-4.41,4.41-4.41-1.98-4.41-4.41"/>
      <path class="cls-23" d="M684.89,178.66c0-2.43,1.99-4.41,4.41-4.41s4.41,1.98,4.41,4.41-1.98,4.41-4.41,4.41-4.41-1.99-4.41-4.41"/>
      <path class="cls-3" d="M684.89,178.66c0-2.43,1.99-4.41,4.41-4.41s4.41,1.98,4.41,4.41-1.98,4.41-4.41,4.41-4.41-1.99-4.41-4.41"/>
      <path class="cls-18" d="M579.02,191.24c0-2.43,1.98-4.41,4.41-4.41s4.41,1.98,4.41,4.41-1.99,4.4-4.41,4.4-4.41-1.98-4.41-4.4"/>
      <path class="cls-3" d="M579.02,191.24c0-2.43,1.98-4.41,4.41-4.41s4.41,1.98,4.41,4.41-1.99,4.4-4.41,4.4-4.41-1.98-4.41-4.4"/>
      <path class="cls-6" d="M529.19,278.02c0-2.42,1.99-4.41,4.41-4.41s4.41,1.99,4.41,4.41-1.98,4.41-4.41,4.41-4.41-1.98-4.41-4.41"/>
      <path class="cls-3" d="M529.19,278.02c0-2.42,1.99-4.41,4.41-4.41s4.41,1.99,4.41,4.41-1.98,4.41-4.41,4.41-4.41-1.98-4.41-4.41"/>
      <path class="cls-18" d="M536.46,261.67c0-2.42,1.98-4.41,4.41-4.41s4.41,1.99,4.41,4.41-1.99,4.41-4.41,4.41-4.41-1.99-4.41-4.41"/>
      <path class="cls-3" d="M536.46,261.67c0-2.42,1.98-4.41,4.41-4.41s4.41,1.99,4.41,4.41-1.99,4.41-4.41,4.41-4.41-1.99-4.41-4.41"/>
      <path class="cls-18" d="M595.63,220.16c0-2.42,1.98-4.4,4.4-4.4s4.41,1.98,4.41,4.4-1.98,4.41-4.41,4.41-4.4-1.98-4.4-4.41"/>
      <path class="cls-3" d="M595.63,220.16c0-2.42,1.98-4.4,4.4-4.4s4.41,1.98,4.41,4.4-1.98,4.41-4.41,4.41-4.4-1.98-4.4-4.41"/>
      <path class="cls-22" d="M534.73,266.7c0-2.42,1.98-4.41,4.41-4.41s4.41,1.99,4.41,4.41-1.99,4.41-4.41,4.41-4.41-1.98-4.41-4.41"/>
      <path class="cls-3" d="M534.73,266.7c0-2.42,1.98-4.41,4.41-4.41s4.41,1.99,4.41,4.41-1.99,4.41-4.41,4.41-4.41-1.98-4.41-4.41"/>
      <path class="cls-22" d="M562.41,228.97c0-2.43,1.98-4.41,4.41-4.41s4.41,1.98,4.41,4.41-1.99,4.41-4.41,4.41-4.41-1.99-4.41-4.41"/>
      <path class="cls-3" d="M562.41,228.97c0-2.43,1.98-4.41,4.41-4.41s4.41,1.98,4.41,4.41-1.99,4.41-4.41,4.41-4.41-1.99-4.41-4.41"/>
      <path class="cls-18" d="M519.97,266.7c0-2.42,1.98-4.41,4.41-4.41s4.4,1.99,4.4,4.41-1.98,4.41-4.4,4.41-4.41-1.98-4.41-4.41"/>
      <path class="cls-3" d="M519.97,266.7c0-2.42,1.98-4.41,4.41-4.41s4.4,1.99,4.4,4.41-1.98,4.41-4.4,4.41-4.41-1.98-4.41-4.41"/>
      <path class="cls-22" d="M569.44,217.65c0-2.43,1.99-4.41,4.41-4.41s4.41,1.98,4.41,4.41-1.98,4.41-4.41,4.41-4.41-1.99-4.41-4.41"/>
      <path class="cls-3" d="M569.44,217.65c0-2.43,1.99-4.41,4.41-4.41s4.41,1.98,4.41,4.41-1.98,4.41-4.41,4.41-4.41-1.99-4.41-4.41"/>
      <path class="cls-18" d="M545.8,226.45c0-2.42,1.99-4.41,4.41-4.41s4.41,1.99,4.41,4.41-1.99,4.41-4.41,4.41-4.41-1.98-4.41-4.41"/>
      <path class="cls-3" d="M545.8,226.45c0-2.42,1.99-4.41,4.41-4.41s4.41,1.99,4.41,4.41-1.99,4.41-4.41,4.41-4.41-1.98-4.41-4.41"/>
      <path class="cls-6" d="M594.18,228.97c0-2.43,1.99-4.41,4.41-4.41s4.41,1.98,4.41,4.41-1.98,4.41-4.41,4.41-4.41-1.99-4.41-4.41"/>
      <path class="cls-3" d="M594.18,228.97c0-2.43,1.99-4.41,4.41-4.41s4.41,1.98,4.41,4.41-1.98,4.41-4.41,4.41-4.41-1.99-4.41-4.41"/>
      <path class="cls-18" d="M567.95,245.32c0-2.43,1.98-4.41,4.4-4.41s4.41,1.98,4.41,4.41-1.98,4.41-4.41,4.41-4.4-1.99-4.4-4.41"/>
      <path class="cls-3" d="M567.95,245.32c0-2.43,1.98-4.41,4.4-4.41s4.41,1.98,4.41,4.41-1.98,4.41-4.41,4.41-4.4-1.99-4.4-4.41"/>
      <path class="cls-18" d="M577.69,201.3c0-2.43,1.99-4.41,4.41-4.41s4.41,1.98,4.41,4.41-1.99,4.41-4.41,4.41-4.41-1.99-4.41-4.41"/>
      <path class="cls-3" d="M577.69,201.3c0-2.43,1.99-4.41,4.41-4.41s4.41,1.98,4.41,4.41-1.99,4.41-4.41,4.41-4.41-1.99-4.41-4.41"/>
      <path class="cls-22" d="M545.8,239.03c0-2.42,1.99-4.41,4.41-4.41s4.41,1.99,4.41,4.41-1.99,4.41-4.41,4.41-4.41-1.98-4.41-4.41"/>
      <path class="cls-3" d="M545.8,239.03c0-2.42,1.99-4.41,4.41-4.41s4.41,1.99,4.41,4.41-1.99,4.41-4.41,4.41-4.41-1.98-4.41-4.41"/>
      <path class="cls-14" d="M479.37,318.27c0-2.43,1.98-4.41,4.41-4.41s4.41,1.98,4.41,4.41-1.99,4.41-4.41,4.41-4.41-1.99-4.41-4.41"/>
      <path class="cls-3" d="M479.37,318.27c0-2.43,1.98-4.41,4.41-4.41s4.41,1.98,4.41,4.41-1.99,4.41-4.41,4.41-4.41-1.99-4.41-4.41"/>
      <path class="cls-23" d="M518.12,241.55c0-2.43,1.98-4.41,4.41-4.41s4.41,1.98,4.41,4.41-1.99,4.4-4.41,4.4-4.41-1.98-4.41-4.4"/>
      <path class="cls-3" d="M518.12,241.55c0-2.43,1.98-4.41,4.41-4.41s4.41,1.98,4.41,4.41-1.99,4.4-4.41,4.4-4.41-1.98-4.41-4.4"/>
      <path class="cls-14" d="M709.63,142.18c0-2.42,1.99-4.41,4.41-4.41s4.41,1.99,4.41,4.41-1.98,4.41-4.41,4.41-4.41-1.98-4.41-4.41"/>
      <path class="cls-3" d="M709.63,142.18c0-2.42,1.99-4.41,4.41-4.41s4.41,1.99,4.41,4.41-1.98,4.41-4.41,4.41-4.41-1.98-4.41-4.41"/>
      <path class="cls-24" d="M673.13,168.6c0-2.43,1.98-4.41,4.41-4.41s4.41,1.98,4.41,4.41-1.99,4.4-4.41,4.4-4.41-1.98-4.41-4.4"/>
      <path class="cls-3" d="M673.13,168.6c0-2.43,1.98-4.41,4.41-4.41s4.41,1.98,4.41,4.41-1.99,4.4-4.41,4.4-4.41-1.98-4.41-4.4"/>
      <path class="cls-14" d="M606.7,192.49c0-2.42,1.98-4.41,4.41-4.41s4.41,1.99,4.41,4.41-1.99,4.41-4.41,4.41-4.41-1.98-4.41-4.41"/>
      <path class="cls-3" d="M606.7,192.49c0-2.42,1.98-4.41,4.41-4.41s4.41,1.99,4.41,4.41-1.99,4.41-4.41,4.41-4.41-1.98-4.41-4.41"/>
      <path class="cls-24" d="M717.42,150.99c0-2.43,1.98-4.41,4.41-4.41s4.41,1.98,4.41,4.41-1.99,4.41-4.41,4.41-4.41-1.99-4.41-4.41"/>
      <path class="cls-3" d="M717.42,150.99c0-2.43,1.98-4.41,4.41-4.41s4.41,1.98,4.41,4.41-1.99,4.41-4.41,4.41-4.41-1.99-4.41-4.41"/>
      <path class="cls-14" d="M668.4,198.78c0-2.42,1.99-4.41,4.41-4.41s4.41,1.99,4.41,4.41-1.98,4.41-4.41,4.41-4.41-1.98-4.41-4.41"/>
      <path class="cls-3" d="M668.4,198.78c0-2.42,1.99-4.41,4.41-4.41s4.41,1.99,4.41,4.41-1.98,4.41-4.41,4.41-4.41-1.98-4.41-4.41"/>
      <path class="cls-23" d="M656.52,189.98c0-2.43,1.99-4.41,4.41-4.41s4.41,1.98,4.41,4.41-1.98,4.41-4.41,4.41-4.41-1.99-4.41-4.41"/>
      <path class="cls-3" d="M656.52,189.98c0-2.43,1.99-4.41,4.41-4.41s4.41,1.98,4.41,4.41-1.98,4.41-4.41,4.41-4.41-1.99-4.41-4.41"/>
      <path class="cls-23" d="M783.85,100.68c0-2.43,1.99-4.41,4.41-4.41s4.41,1.98,4.41,4.41-1.98,4.41-4.41,4.41-4.41-1.99-4.41-4.41"/>
      <path class="cls-3" d="M783.85,100.68c0-2.43,1.99-4.41,4.41-4.41s4.41,1.98,4.41,4.41-1.98,4.41-4.41,4.41-4.41-1.99-4.41-4.41"/>
      <path class="cls-19" d="M684.89,166.08c0-2.42,1.99-4.41,4.41-4.41s4.41,1.99,4.41,4.41-1.98,4.41-4.41,4.41-4.41-1.98-4.41-4.41"/>
      <path class="cls-3" d="M684.89,166.08c0-2.42,1.99-4.41,4.41-4.41s4.41,1.99,4.41,4.41-1.98,4.41-4.41,4.41-4.41-1.98-4.41-4.41"/>
      <path class="cls-14" d="M678.67,177.4c0-2.42,1.98-4.41,4.41-4.41s4.4,1.99,4.4,4.41-1.98,4.41-4.4,4.41-4.41-1.99-4.41-4.41"/>
      <path class="cls-3" d="M678.67,177.4c0-2.42,1.98-4.41,4.41-4.41s4.4,1.99,4.4,4.41-1.98,4.41-4.4,4.41-4.41-1.99-4.41-4.41"/>
      <path class="cls-19" d="M684.89,184.95c0-2.43,1.99-4.41,4.41-4.41s4.41,1.98,4.41,4.41-1.98,4.41-4.41,4.41-4.41-1.99-4.41-4.41"/>
      <path class="cls-3" d="M684.89,184.95c0-2.43,1.99-4.41,4.41-4.41s4.41,1.98,4.41,4.41-1.98,4.41-4.41,4.41-4.41-1.99-4.41-4.41"/>
      <path class="cls-22" d="M540.27,125.83c0-2.42,1.98-4.41,4.4-4.41s4.41,1.99,4.41,4.41-1.98,4.41-4.41,4.41-4.4-1.98-4.4-4.41"/>
      <path class="cls-3" d="M540.27,125.83c0-2.42,1.98-4.41,4.4-4.41s4.41,1.99,4.41,4.41-1.98,4.41-4.41,4.41-4.4-1.98-4.4-4.41"/>
      <path class="cls-24" d="M660.16,174.88c0-2.42,1.98-4.4,4.4-4.4s4.41,1.98,4.41,4.4-1.98,4.41-4.41,4.41-4.4-1.98-4.4-4.41"/>
      <path class="cls-3" d="M660.16,174.88c0-2.42,1.98-4.4,4.4-4.4s4.41,1.98,4.41,4.4-1.98,4.41-4.41,4.41-4.4-1.98-4.4-4.41"/>
      <path class="cls-19" d="M759.11,150.99c0-2.43,1.99-4.41,4.41-4.41s4.41,1.98,4.41,4.41-1.98,4.41-4.41,4.41-4.41-1.99-4.41-4.41"/>
      <path class="cls-3" d="M759.11,150.99c0-2.43,1.99-4.41,4.41-4.41s4.41,1.98,4.41,4.41-1.98,4.41-4.41,4.41-4.41-1.99-4.41-4.41"/>
      <path class="cls-19" d="M759.11,113.25c0-2.42,1.99-4.4,4.41-4.4s4.41,1.98,4.41,4.4-1.98,4.41-4.41,4.41-4.41-1.98-4.41-4.41"/>
      <path class="cls-3" d="M759.11,113.25c0-2.42,1.99-4.4,4.41-4.4s4.41,1.98,4.41,4.4-1.98,4.41-4.41,4.41-4.41-1.98-4.41-4.41"/>
      <path class="cls-24" d="M673.13,177.4c0-2.42,1.98-4.41,4.41-4.41s4.41,1.99,4.41,4.41-1.99,4.41-4.41,4.41-4.41-1.99-4.41-4.41"/>
      <path class="cls-3" d="M673.13,177.4c0-2.42,1.98-4.41,4.41-4.41s4.41,1.99,4.41,4.41-1.99,4.41-4.41,4.41-4.41-1.99-4.41-4.41"/>
      <path class="cls-24" d="M660.16,179.92c0-2.43,1.98-4.41,4.4-4.41s4.41,1.98,4.41,4.41-1.98,4.4-4.41,4.4-4.4-1.98-4.4-4.4"/>
      <path class="cls-3" d="M660.16,179.92c0-2.43,1.98-4.41,4.4-4.41s4.41,1.98,4.41,4.41-1.98,4.4-4.41,4.4-4.4-1.98-4.4-4.4"/>
      <path class="cls-19" d="M728.49,125.83c0-2.42,1.99-4.41,4.41-4.41s4.41,1.99,4.41,4.41-1.99,4.41-4.41,4.41-4.41-1.98-4.41-4.41"/>
      <path class="cls-3" d="M728.49,125.83c0-2.42,1.99-4.41,4.41-4.41s4.41,1.99,4.41,4.41-1.99,4.41-4.41,4.41-4.41-1.98-4.41-4.41"/>
      <path class="cls-19" d="M595.63,188.72c0-2.42,1.98-4.41,4.4-4.41s4.41,1.99,4.41,4.41-1.98,4.41-4.41,4.41-4.4-1.99-4.4-4.41"/>
      <path class="cls-3" d="M595.63,188.72c0-2.42,1.98-4.41,4.4-4.41s4.41,1.99,4.41,4.41-1.98,4.41-4.41,4.41-4.4-1.99-4.4-4.41"/>
      <path class="cls-24" d="M717.88,153.5c0-2.42,1.98-4.41,4.41-4.41s4.41,1.99,4.41,4.41-1.99,4.41-4.41,4.41-4.41-1.98-4.41-4.41"/>
      <path class="cls-3" d="M717.88,153.5c0-2.42,1.98-4.41,4.41-4.41s4.41,1.99,4.41,4.41-1.99,4.41-4.41,4.41-4.41-1.98-4.41-4.41"/>
      <path class="cls-19" d="M662.06,166.08c0-2.42,1.98-4.41,4.41-4.41s4.41,1.99,4.41,4.41-1.99,4.41-4.41,4.41-4.41-1.98-4.41-4.41"/>
      <path class="cls-3" d="M662.06,166.08c0-2.42,1.98-4.41,4.41-4.41s4.41,1.99,4.41,4.41-1.99,4.41-4.41,4.41-4.41-1.98-4.41-4.41"/>
      <path class="cls-24" d="M601.16,227.71c0-2.42,1.99-4.41,4.41-4.41s4.41,1.99,4.41,4.41-1.98,4.41-4.41,4.41-4.41-1.98-4.41-4.41"/>
      <path class="cls-3" d="M601.16,227.71c0-2.42,1.99-4.41,4.41-4.41s4.41,1.99,4.41,4.41-1.98,4.41-4.41,4.41-4.41-1.98-4.41-4.41"/>
      <path class="cls-19" d="M635.42,187.46c0-2.42,1.98-4.41,4.4-4.41s4.41,1.99,4.41,4.41-1.98,4.41-4.41,4.41-4.4-1.98-4.4-4.41"/>
      <path class="cls-3" d="M635.42,187.46c0-2.42,1.98-4.41,4.4-4.41s4.41,1.99,4.41,4.41-1.98,4.41-4.41,4.41-4.4-1.98-4.4-4.41"/>
      <path class="cls-14" d="M656.52,91.87c0-2.42,1.99-4.41,4.41-4.41s4.41,1.99,4.41,4.41-1.98,4.41-4.41,4.41-4.41-1.98-4.41-4.41"/>
      <path class="cls-3" d="M656.52,91.87c0-2.42,1.99-4.41,4.41-4.41s4.41,1.99,4.41,4.41-1.98,4.41-4.41,4.41-4.41-1.98-4.41-4.41"/>
      <path class="cls-24" d="M709.63,156.02c0-2.43,1.99-4.41,4.41-4.41s4.41,1.98,4.41,4.41-1.98,4.41-4.41,4.41-4.41-1.99-4.41-4.41"/>
      <path class="cls-3" d="M709.63,156.02c0-2.43,1.99-4.41,4.41-4.41s4.41,1.98,4.41,4.41-1.98,4.41-4.41,4.41-4.41-1.99-4.41-4.41"/>
      <path class="cls-24" d="M726.13,158.53c0-2.42,1.98-4.41,4.41-4.41s4.4,1.99,4.4,4.41-1.98,4.41-4.4,4.41-4.41-1.98-4.41-4.41"/>
      <path class="cls-3" d="M726.13,158.53c0-2.42,1.98-4.41,4.41-4.41s4.4,1.99,4.4,4.41-1.98,4.41-4.4,4.41-4.41-1.98-4.41-4.41"/>
      <path class="cls-22" d="M734.03,161.05c0-2.43,1.98-4.41,4.41-4.41s4.4,1.98,4.4,4.41-1.98,4.41-4.4,4.41-4.41-1.99-4.41-4.41"/>
      <path class="cls-3" d="M734.03,161.05c0-2.43,1.98-4.41,4.41-4.41s4.4,1.98,4.4,4.41-1.98,4.41-4.4,4.41-4.41-1.99-4.41-4.41"/>
      <path class="cls-14" d="M750.64,114.51c0-2.42,1.98-4.41,4.4-4.41s4.41,1.99,4.41,4.41-1.98,4.41-4.41,4.41-4.4-1.98-4.4-4.41"/>
      <path class="cls-3" d="M750.64,114.51c0-2.42,1.98-4.41,4.4-4.41s4.41,1.99,4.41,4.41-1.98,4.41-4.41,4.41-4.4-1.98-4.4-4.41"/>
      <path class="cls-19" d="M722.96,129.61c0-2.43,1.98-4.41,4.4-4.41s4.41,1.98,4.41,4.41-1.98,4.4-4.41,4.4-4.4-1.98-4.4-4.4"/>
      <path class="cls-3" d="M722.96,129.61c0-2.43,1.98-4.41,4.4-4.41s4.41,1.98,4.41,4.41-1.98,4.4-4.41,4.4-4.4-1.98-4.4-4.4"/>
      <path class="cls-22" d="M722.96,163.56c0-2.42,1.98-4.4,4.4-4.4s4.41,1.98,4.41,4.4-1.98,4.41-4.41,4.41-4.4-1.98-4.4-4.41"/>
      <path class="cls-3" d="M722.96,163.56c0-2.42,1.98-4.4,4.4-4.4s4.41,1.98,4.41,4.4-1.98,4.41-4.41,4.41-4.4-1.98-4.4-4.41"/>
      <path class="cls-24" d="M759.11,100.68c0-2.43,1.99-4.41,4.41-4.41s4.41,1.98,4.41,4.41-1.98,4.41-4.41,4.41-4.41-1.99-4.41-4.41"/>
      <path class="cls-3" d="M759.11,100.68c0-2.43,1.99-4.41,4.41-4.41s4.41,1.98,4.41,4.41-1.98,4.41-4.41,4.41-4.41-1.99-4.41-4.41"/>
      <path class="cls-14" d="M678.67,179.92c0-2.43,1.98-4.41,4.41-4.41s4.4,1.98,4.4,4.41-1.98,4.4-4.4,4.4-4.41-1.98-4.41-4.4"/>
      <path class="cls-3" d="M678.67,179.92c0-2.43,1.98-4.41,4.41-4.41s4.4,1.98,4.4,4.41-1.98,4.4-4.4,4.4-4.41-1.98-4.41-4.4"/>
      <path class="cls-14" d="M602.43,227.71c0-2.42,1.98-4.41,4.41-4.41s4.41,1.99,4.41,4.41-1.99,4.41-4.41,4.41-4.41-1.98-4.41-4.41"/>
      <path class="cls-3" d="M602.43,227.71c0-2.42,1.98-4.41,4.41-4.41s4.41,1.99,4.41,4.41-1.99,4.41-4.41,4.41-4.41-1.98-4.41-4.41"/>
      <path class="cls-24" d="M573.48,217.65c0-2.43,1.99-4.41,4.41-4.41s4.41,1.98,4.41,4.41-1.98,4.41-4.41,4.41-4.41-1.99-4.41-4.41"/>
      <path class="cls-3" d="M573.48,217.65c0-2.43,1.99-4.41,4.41-4.41s4.41,1.98,4.41,4.41-1.98,4.41-4.41,4.41-4.41-1.99-4.41-4.41"/>
      <path class="cls-24" d="M544.71,265.44c0-2.42,1.98-4.41,4.4-4.41s4.41,1.99,4.41,4.41-1.98,4.41-4.41,4.41-4.4-1.98-4.4-4.41"/>
      <path class="cls-3" d="M544.71,265.44c0-2.42,1.98-4.41,4.4-4.41s4.41,1.99,4.41,4.41-1.98,4.41-4.41,4.41-4.4-1.98-4.4-4.41"/>
      <path class="cls-24" d="M585.94,239.03c0-2.42,1.98-4.41,4.41-4.41s4.41,1.99,4.41,4.41-1.99,4.41-4.41,4.41-4.41-1.98-4.41-4.41"/>
      <path class="cls-3" d="M585.94,239.03c0-2.42,1.98-4.41,4.41-4.41s4.41,1.99,4.41,4.41-1.99,4.41-4.41,4.41-4.41-1.98-4.41-4.41"/>
      <path class="cls-14" d="M551.34,201.3c0-2.43,1.98-4.41,4.41-4.41s4.4,1.98,4.4,4.41-1.98,4.41-4.4,4.41-4.41-1.99-4.41-4.41"/>
      <path class="cls-3" d="M551.34,201.3c0-2.43,1.98-4.41,4.41-4.41s4.4,1.98,4.4,4.41-1.98,4.41-4.4,4.41-4.41-1.99-4.41-4.41"/>
      <path class="cls-22" d="M552.95,261.67c0-2.42,1.99-4.41,4.41-4.41s4.41,1.99,4.41,4.41-1.98,4.41-4.41,4.41-4.41-1.99-4.41-4.41"/>
      <path class="cls-3" d="M552.95,261.67c0-2.42,1.99-4.41,4.41-4.41s4.41,1.99,4.41,4.41-1.98,4.41-4.41,4.41-4.41-1.99-4.41-4.41"/>
      <path class="cls-24" d="M761.71,120.8c0-2.42,1.98-4.41,4.41-4.41s4.41,1.99,4.41,4.41-1.99,4.41-4.41,4.41-4.41-1.98-4.41-4.41"/>
      <path class="cls-3" d="M761.71,120.8c0-2.42,1.98-4.41,4.41-4.41s4.41,1.99,4.41,4.41-1.99,4.41-4.41,4.41-4.41-1.98-4.41-4.41"/>
      <path class="cls-19" d="M728.49,138.41c0-2.43,1.99-4.41,4.41-4.41s4.41,1.98,4.41,4.41-1.99,4.41-4.41,4.41-4.41-1.99-4.41-4.41"/>
      <path class="cls-3" d="M728.49,138.41c0-2.43,1.99-4.41,4.41-4.41s4.41,1.98,4.41,4.41-1.99,4.41-4.41,4.41-4.41-1.99-4.41-4.41"/>
      <path class="cls-23" d="M673.13,169.85c0-2.42,1.98-4.41,4.41-4.41s4.41,1.99,4.41,4.41-1.99,4.41-4.41,4.41-4.41-1.98-4.41-4.41"/>
      <path class="cls-3" d="M673.13,169.85c0-2.42,1.98-4.41,4.41-4.41s4.41,1.99,4.41,4.41-1.99,4.41-4.41,4.41-4.41-1.98-4.41-4.41"/>
      <path class="cls-23" d="M722.96,134.64c0-2.43,1.98-4.41,4.4-4.41s4.41,1.98,4.41,4.41-1.98,4.41-4.41,4.41-4.4-1.99-4.4-4.41"/>
      <path class="cls-3" d="M722.96,134.64c0-2.43,1.98-4.41,4.4-4.41s4.41,1.98,4.41,4.41-1.98,4.41-4.41,4.41-4.4-1.99-4.4-4.41"/>
      <path class="cls-23" d="M545.8,225.19c0-2.42,1.99-4.4,4.41-4.4s4.41,1.98,4.41,4.4-1.99,4.41-4.41,4.41-4.41-1.98-4.41-4.41"/>
      <path class="cls-3" d="M545.8,225.19c0-2.42,1.99-4.4,4.41-4.4s4.41,1.98,4.41,4.4-1.99,4.41-4.41,4.41-4.41-1.98-4.41-4.41"/>
      <path class="cls-23" d="M711.88,144.7c0-2.43,1.99-4.41,4.41-4.41s4.41,1.98,4.41,4.41-1.98,4.41-4.41,4.41-4.41-1.99-4.41-4.41"/>
      <path class="cls-3" d="M711.88,144.7c0-2.43,1.99-4.41,4.41-4.41s4.41,1.98,4.41,4.41-1.98,4.41-4.41,4.41-4.41-1.99-4.41-4.41"/>
      <path class="cls-23" d="M676.65,157.28c0-2.43,1.98-4.41,4.41-4.41s4.41,1.98,4.41,4.41-1.99,4.4-4.41,4.4-4.41-1.98-4.41-4.4"/>
      <path class="cls-3" d="M676.65,157.28c0-2.43,1.98-4.41,4.41-4.41s4.41,1.98,4.41,4.41-1.99,4.4-4.41,4.4-4.41-1.98-4.41-4.4"/>
      <path class="cls-23" d="M610.68,201.3c0-2.43,1.98-4.41,4.41-4.41s4.4,1.98,4.4,4.41-1.98,4.41-4.4,4.41-4.41-1.99-4.41-4.41"/>
      <path class="cls-3" d="M610.68,201.3c0-2.43,1.98-4.41,4.41-4.41s4.4,1.98,4.4,4.41-1.98,4.41-4.4,4.41-4.41-1.99-4.41-4.41"/>
      <polygon class="cls-20" points="483.78 267.2 487.84 265.13 491.91 263.05 495.97 260.97 500.04 258.89 504.1 256.81 508.16 254.73 512.23 252.65 516.29 250.57 520.36 248.48 524.42 246.4 528.49 244.31 532.55 242.22 536.62 240.13 540.68 238.04 544.74 235.94 548.81 233.85 552.87 231.75 556.94 229.64 561 227.54 565.07 225.43 569.13 223.32 573.2 221.21 577.26 219.09 581.32 216.97 585.39 214.84 589.45 212.71 593.52 210.57 597.58 208.43 601.65 206.28 605.71 204.13 609.78 201.97 613.84 199.8 617.9 197.62 621.97 195.43 626.03 193.24 630.1 191.04 634.16 188.82 638.23 186.6 642.29 184.37 646.36 182.12 650.42 179.87 654.48 177.6 658.55 175.32 662.61 173.03 666.68 170.73 670.74 168.42 674.81 166.1 678.87 163.76 682.94 161.42 687 159.07 691.06 156.71 695.13 154.34 699.19 151.97 703.26 149.58 707.32 147.19 711.39 144.8 715.45 142.39 719.52 139.99 723.58 137.57 727.64 135.16 731.71 132.73 735.77 130.31 739.84 127.88 743.9 125.45 747.97 123.01 752.03 120.57 756.1 118.13 760.16 115.69 764.22 113.24 768.29 110.79 772.35 108.34 776.42 105.89 780.48 103.43 784.55 100.98 788.61 98.52 792.68 96.06 796.74 93.6 800.8 91.14 804.87 88.68 804.87 106.69 800.8 108.77 796.74 110.86 792.68 112.94 788.61 115.02 784.55 117.11 780.48 119.2 776.42 121.28 772.35 123.38 768.29 125.47 764.22 127.56 760.16 129.66 756.1 131.76 752.03 133.86 747.97 135.96 743.9 138.07 739.84 140.18 735.77 142.29 731.71 144.41 727.64 146.53 723.58 148.66 719.52 150.79 715.45 152.92 711.39 155.06 707.32 157.21 703.26 159.36 699.19 161.52 695.13 163.69 691.06 165.86 687 168.05 682.94 170.24 678.87 172.44 674.81 174.65 670.74 176.87 666.68 179.1 662.61 181.34 658.55 183.6 654.48 185.86 650.42 188.14 646.36 190.42 642.29 192.72 638.23 195.03 634.16 197.35 630.1 199.68 626.03 202.02 621.97 204.37 617.9 206.73 613.84 209.09 609.78 211.47 605.71 213.85 601.65 216.24 597.58 218.63 593.52 221.03 589.45 223.44 585.39 225.85 581.32 228.27 577.26 230.69 573.2 233.11 569.13 235.54 565.07 237.97 561 240.41 556.94 242.85 552.87 245.29 548.81 247.73 544.74 250.18 540.68 252.62 536.62 255.07 532.55 257.53 528.49 259.98 524.42 262.43 520.36 264.89 516.29 267.35 512.23 269.81 508.16 272.27 504.1 274.73 500.04 277.2 495.97 279.66 491.91 282.13 487.84 284.59 483.78 287.06 483.78 267.2"/>
      <polyline class="cls-1" points="483.78 277.13 487.84 274.86 491.91 272.59 495.97 270.32 500.04 268.05 504.1 265.77 508.16 263.5 512.23 261.23 516.29 258.96 520.36 256.69 524.42 254.42 528.49 252.15 532.55 249.87 536.62 247.6 540.68 245.33 544.74 243.06 548.81 240.79 552.87 238.52 556.94 236.24 561 233.97 565.07 231.7 569.13 229.43 573.2 227.16 577.26 224.89 581.32 222.62 585.39 220.34 589.45 218.07 593.52 215.8 597.58 213.53 601.65 211.26 605.71 208.99 609.78 206.72 613.84 204.44 617.9 202.17 621.97 199.9 626.03 197.63 630.1 195.36 634.16 193.09 638.23 190.82 642.29 188.54 646.36 186.27 650.42 184 654.48 181.73 658.55 179.46 662.61 177.19 666.68 174.92 670.74 172.64 674.81 170.37 678.87 168.1 682.94 165.83 687 163.56 691.06 161.29 695.13 159.02 699.19 156.74 703.26 154.47 707.32 152.2 711.39 149.93 715.45 147.66 719.52 145.39 723.58 143.11 727.64 140.84 731.71 138.57 735.77 136.3 739.84 134.03 743.9 131.76 747.97 129.49 752.03 127.21 756.1 124.94 760.16 122.67 764.22 120.4 768.29 118.13 772.35 115.86 776.42 113.59 780.48 111.31 784.55 109.04 788.61 106.77 792.68 104.5 796.74 102.23 800.8 99.96 804.87 97.69"/>
      <text class="cls-10" transform="translate(495.45 26.32) scale(.91 1)"><tspan x="0" y="0" xml:space="preserve">y =  0.006 x +  0.252 </tspan></text>
      <text class="cls-9" transform="translate(494.86 56.32) scale(.96 1)"><tspan x="0" y="0" xml:space="preserve">R² =  0.79</tspan></text>
      <rect class="cls-4" x="467.72" width="353.2" height="333.43"/>
    </g>
    <text class="cls-7" transform="translate(443.33 338.27)"><tspan x="0" y="0">2.0</tspan></text>
    <text class="cls-7" transform="translate(443.33 233.37)"><tspan x="0" y="0">3.0</tspan></text>
    <text class="cls-7" transform="translate(443.33 128.46)"><tspan x="0" y="0">4.0</tspan></text>
    <text class="cls-7" transform="translate(443.33 23.56)"><tspan x="0" y="0">5.0</tspan></text>
    <line class="cls-2" x1="465.19" y1="333.24" x2="467.93" y2="333.24"/>
    <line class="cls-2" x1="464.98" y1="228.34" x2="467.72" y2="228.34"/>
    <line class="cls-2" x1="464.98" y1="123.44" x2="467.72" y2="123.44"/>
    <line class="cls-2" x1="464.98" y1="18.54" x2="467.72" y2="18.54"/>
    <line class="cls-2" x1="508.37" y1="336.17" x2="508.37" y2="333.43"/>
    <line class="cls-2" x1="593.09" y1="336.17" x2="593.09" y2="333.43"/>
    <line class="cls-2" x1="677.91" y1="336.17" x2="677.91" y2="333.43"/>
    <line class="cls-2" x1="762.83" y1="336.17" x2="762.83" y2="333.43"/>
    <text class="cls-7" transform="translate(496.69 348.41)"><tspan x="0" y="0">400</tspan></text>
    <text class="cls-7" transform="translate(581.41 348.41)"><tspan x="0" y="0">450</tspan></text>
    <text class="cls-7" transform="translate(666.23 348.41)"><tspan x="0" y="0">500</tspan></text>
    <text class="cls-7" transform="translate(751.15 348.41)"><tspan x="0" y="0">550</tspan></text>
    <text class="cls-8" transform="translate(581.65 372.09)"><tspan x="0" y="0">Pixel width</tspan></text>
    <text class="cls-8" transform="translate(437.51 240.36) rotate(-90)"><tspan x="0" y="0">Actual width</tspan></text>
    <text class="cls-8" transform="translate(833.36 76.8)"><tspan x="0" y="0">Classes</tspan></text>
    <g>
      <path class="cls-23" d="M834.11,251.24c0-3.72,3.05-6.75,6.75-6.75s6.75,3.03,6.75,6.75-3.03,6.75-6.75,6.75-6.75-3.05-6.75-6.75"/>
      <path class="cls-3" d="M834.11,251.24c0-3.72,3.05-6.75,6.75-6.75s6.75,3.03,6.75,6.75-3.03,6.75-6.75,6.75-6.75-3.05-6.75-6.75"/>
    </g>
    <g>
      <path class="cls-24" d="M834.11,99.73c0-3.72,3.05-6.75,6.75-6.75s6.75,3.03,6.75,6.75-3.03,6.75-6.75,6.75-6.75-3.05-6.75-6.75"/>
      <path class="cls-3" d="M834.11,99.73c0-3.72,3.05-6.75,6.75-6.75s6.75,3.03,6.75,6.75-3.03,6.75-6.75,6.75-6.75-3.05-6.75-6.75"/>
    </g>
    <g>
      <path class="cls-14" d="M834.11,124.8c0-3.72,3.05-6.75,6.75-6.75s6.75,3.03,6.75,6.75-3.03,6.75-6.75,6.75-6.75-3.05-6.75-6.75"/>
      <path class="cls-3" d="M834.11,124.8c0-3.72,3.05-6.75,6.75-6.75s6.75,3.03,6.75,6.75-3.03,6.75-6.75,6.75-6.75-3.05-6.75-6.75"/>
    </g>
    <g>
      <path class="cls-6" d="M834.11,150.08c0-3.72,3.05-6.75,6.75-6.75s6.75,3.03,6.75,6.75-3.03,6.75-6.75,6.75-6.75-3.05-6.75-6.75"/>
      <path class="cls-3" d="M834.11,150.08c0-3.72,3.05-6.75,6.75-6.75s6.75,3.03,6.75,6.75-3.03,6.75-6.75,6.75-6.75-3.05-6.75-6.75"/>
    </g>
    <g>
      <path class="cls-19" d="M834.11,175.36c0-3.72,3.05-6.75,6.75-6.75s6.75,3.03,6.75,6.75-3.03,6.75-6.75,6.75-6.75-3.05-6.75-6.75"/>
      <path class="cls-3" d="M834.11,175.36c0-3.72,3.05-6.75,6.75-6.75s6.75,3.03,6.75,6.75-3.03,6.75-6.75,6.75-6.75-3.05-6.75-6.75"/>
    </g>
    <g>
      <path class="cls-22" d="M834.11,200.64c0-3.72,3.05-6.75,6.75-6.75s6.75,3.03,6.75,6.75-3.03,6.75-6.75,6.75-6.75-3.05-6.75-6.75"/>
      <path class="cls-3" d="M834.11,200.64c0-3.72,3.05-6.75,6.75-6.75s6.75,3.03,6.75,6.75-3.03,6.75-6.75,6.75-6.75-3.05-6.75-6.75"/>
    </g>
    <g>
      <path class="cls-18" d="M834.11,225.92c0-3.72,3.05-6.75,6.75-6.75s6.75,3.03,6.75,6.75-3.03,6.75-6.75,6.75-6.75-3.05-6.75-6.75"/>
      <path class="cls-3" d="M834.11,225.92c0-3.72,3.05-6.75,6.75-6.75s6.75,3.03,6.75,6.75-3.03,6.75-6.75,6.75-6.75-3.05-6.75-6.75"/>
    </g>
    <text class="cls-12" transform="translate(868.12 255.83)"><tspan x="0" y="0">oth</tspan></text>
    <text class="cls-12" transform="translate(865.12 104.75)"><tspan x="0" y="0">s</tspan><tspan class="cls-15" x="7" y="0">f</tspan><tspan x="10.48" y="0">aa</tspan></text>
    <text class="cls-12" transform="translate(865.12 128.53)"><tspan x="0" y="0">s</tspan><tspan class="cls-15" x="7" y="0">f</tspan><tspan x="10.48" y="0">ab</tspan></text>
    <text class="cls-12" transform="translate(865.72 153.67)"><tspan x="0" y="0">s</tspan><tspan class="cls-15" x="7" y="0">f</tspan><tspan x="10.48" y="0">ac</tspan></text>
    <text class="cls-12" transform="translate(865.12 178.95)"><tspan x="0" y="0">sfba</tspan></text>
    <text class="cls-12" transform="translate(865.12 205.23)"><tspan x="0" y="0">sf</tspan><tspan class="cls-16" x="10.89" y="0">b</tspan><tspan x="18.54" y="0">b</tspan></text>
    <text class="cls-12" transform="translate(865.12 229.51)"><tspan x="0" y="0">sfbc</tspan></text>
    <g class="cls-17">
      <path class="cls-18" d="M308.4,84.62c0-2.42,1.98-4.4,4.41-4.4s4.41,1.98,4.41,4.4-1.99,4.41-4.41,4.41-4.41-1.98-4.41-4.41"/>
      <path class="cls-3" d="M308.4,84.62c0-2.42,1.98-4.4,4.41-4.4s4.41,1.98,4.41,4.4-1.99,4.41-4.41,4.41-4.41-1.98-4.41-4.41"/>
      <path class="cls-6" d="M209.34,180.09c0-2.43,1.98-4.41,4.41-4.41s4.41,1.98,4.41,4.41-1.99,4.41-4.41,4.41-4.41-1.99-4.41-4.41"/>
      <path class="cls-3" d="M209.34,180.09c0-2.43,1.98-4.41,4.41-4.41s4.41,1.98,4.41,4.41-1.99,4.41-4.41,4.41-4.41-1.99-4.41-4.41"/>
      <path class="cls-18" d="M212.33,177.99c0-2.43,1.98-4.41,4.41-4.41s4.41,1.98,4.41,4.41-1.99,4.41-4.41,4.41-4.41-1.99-4.41-4.41"/>
      <path class="cls-3" d="M212.33,177.99c0-2.43,1.98-4.41,4.41-4.41s4.41,1.98,4.41,4.41-1.99,4.41-4.41,4.41-4.41-1.99-4.41-4.41"/>
      <path class="cls-18" d="M328.9,44.76c0-2.42,1.98-4.41,4.4-4.41s4.41,1.99,4.41,4.41-1.98,4.41-4.41,4.41-4.4-1.98-4.4-4.41"/>
      <path class="cls-3" d="M328.9,44.76c0-2.42,1.98-4.41,4.4-4.41s4.41,1.99,4.41,4.41-1.98,4.41-4.41,4.41-4.4-1.98-4.4-4.41"/>
      <path class="cls-22" d="M168.35,193.72c0-2.42,1.98-4.41,4.41-4.41s4.41,1.99,4.41,4.41-1.99,4.41-4.41,4.41-4.41-1.98-4.41-4.41"/>
      <path class="cls-3" d="M168.35,193.72c0-2.42,1.98-4.41,4.41-4.41s4.41,1.99,4.41,4.41-1.99,4.41-4.41,4.41-4.41-1.98-4.41-4.41"/>
      <path class="cls-22" d="M253.75,126.59c0-2.43,1.98-4.41,4.41-4.41s4.4,1.98,4.4,4.41-1.98,4.4-4.4,4.4-4.41-1.98-4.41-4.4"/>
      <path class="cls-3" d="M253.75,126.59c0-2.43,1.98-4.41,4.41-4.41s4.4,1.98,4.4,4.41-1.98,4.4-4.4,4.4-4.41-1.98-4.41-4.4"/>
      <path class="cls-18" d="M334.45,80.43c0-2.43,1.98-4.41,4.41-4.41s4.4,1.98,4.4,4.41-1.98,4.41-4.4,4.41-4.41-1.99-4.41-4.41"/>
      <path class="cls-3" d="M334.45,80.43c0-2.43,1.98-4.41,4.41-4.41s4.4,1.98,4.4,4.41-1.98,4.41-4.4,4.41-4.41-1.99-4.41-4.41"/>
      <path class="cls-22" d="M344.62,62.6c0-2.43,1.99-4.41,4.41-4.41s4.41,1.98,4.41,4.41-1.98,4.4-4.41,4.4-4.41-1.98-4.41-4.4"/>
      <path class="cls-3" d="M344.62,62.6c0-2.43,1.99-4.41,4.41-4.41s4.41,1.98,4.41,4.41-1.98,4.4-4.41,4.4-4.41-1.98-4.41-4.4"/>
      <path class="cls-18" d="M257.16,124.49c0-2.43,1.99-4.41,4.41-4.41s4.41,1.98,4.41,4.41-1.98,4.41-4.41,4.41-4.41-1.99-4.41-4.41"/>
      <path class="cls-3" d="M257.16,124.49c0-2.43,1.99-4.41,4.41-4.41s4.41,1.98,4.41,4.41-1.98,4.41-4.41,4.41-4.41-1.99-4.41-4.41"/>
      <path class="cls-6" d="M185.43,198.97c0-2.43,1.98-4.41,4.41-4.41s4.41,1.98,4.41,4.41-1.99,4.41-4.41,4.41-4.41-1.99-4.41-4.41"/>
      <path class="cls-3" d="M185.43,198.97c0-2.43,1.98-4.41,4.41-4.41s4.41,1.98,4.41,4.41-1.99,4.41-4.41,4.41-4.41-1.99-4.41-4.41"/>
      <path class="cls-18" d="M253.75,145.47c0-2.43,1.98-4.41,4.41-4.41s4.4,1.98,4.4,4.41-1.98,4.41-4.4,4.41-4.41-1.99-4.41-4.41"/>
      <path class="cls-3" d="M253.75,145.47c0-2.43,1.98-4.41,4.41-4.41s4.4,1.98,4.4,4.41-1.98,4.41-4.4,4.41-4.41-1.99-4.41-4.41"/>
      <path class="cls-18" d="M288.65,100.36c0-2.42,1.99-4.41,4.41-4.41s4.41,1.99,4.41,4.41-1.98,4.41-4.41,4.41-4.41-1.99-4.41-4.41"/>
      <path class="cls-3" d="M288.65,100.36c0-2.42,1.99-4.41,4.41-4.41s4.41,1.99,4.41,4.41-1.98,4.41-4.41,4.41-4.41-1.99-4.41-4.41"/>
      <path class="cls-22" d="M281.07,121.34c0-2.42,1.99-4.41,4.41-4.41s4.41,1.99,4.41,4.41-1.98,4.41-4.41,4.41-4.41-1.98-4.41-4.41"/>
      <path class="cls-3" d="M281.07,121.34c0-2.42,1.99-4.41,4.41-4.41s4.41,1.99,4.41,4.41-1.98,4.41-4.41,4.41-4.41-1.98-4.41-4.41"/>
      <path class="cls-14" d="M223,176.94c0-2.43,1.99-4.41,4.41-4.41s4.41,1.98,4.41,4.41-1.98,4.41-4.41,4.41-4.41-1.99-4.41-4.41"/>
      <path class="cls-3" d="M223,176.94c0-2.43,1.99-4.41,4.41-4.41s4.41,1.98,4.41,4.41-1.98,4.41-4.41,4.41-4.41-1.99-4.41-4.41"/>
      <path class="cls-23" d="M226.42,175.89c0-2.42,1.98-4.41,4.41-4.41s4.41,1.99,4.41,4.41-1.99,4.41-4.41,4.41-4.41-1.99-4.41-4.41"/>
      <path class="cls-3" d="M226.42,175.89c0-2.42,1.98-4.41,4.41-4.41s4.41,1.99,4.41,4.41-1.99,4.41-4.41,4.41-4.41-1.99-4.41-4.41"/>
      <path class="cls-14" d="M212.33,195.82c0-2.42,1.98-4.41,4.41-4.41s4.41,1.99,4.41,4.41-1.99,4.41-4.41,4.41-4.41-1.98-4.41-4.41"/>
      <path class="cls-3" d="M212.33,195.82c0-2.42,1.98-4.41,4.41-4.41s4.41,1.99,4.41,4.41-1.99,4.41-4.41,4.41-4.41-1.98-4.41-4.41"/>
      <path class="cls-24" d="M281.07,130.78c0-2.42,1.99-4.41,4.41-4.41s4.41,1.99,4.41,4.41-1.98,4.41-4.41,4.41-4.41-1.98-4.41-4.41"/>
      <path class="cls-3" d="M281.07,130.78c0-2.42,1.99-4.41,4.41-4.41s4.41,1.99,4.41,4.41-1.98,4.41-4.41,4.41-4.41-1.98-4.41-4.41"/>
      <path class="cls-14" d="M246.92,174.84c0-2.42,1.98-4.41,4.4-4.41s4.41,1.99,4.41,4.41-1.98,4.41-4.41,4.41-4.4-1.98-4.4-4.41"/>
      <path class="cls-3" d="M246.92,174.84c0-2.42,1.98-4.41,4.4-4.41s4.41,1.99,4.41,4.41-1.98,4.41-4.41,4.41-4.4-1.98-4.4-4.41"/>
      <path class="cls-24" d="M226.42,176.94c0-2.43,1.98-4.41,4.41-4.41s4.41,1.98,4.41,4.41-1.99,4.41-4.41,4.41-4.41-1.99-4.41-4.41"/>
      <path class="cls-3" d="M226.42,176.94c0-2.43,1.98-4.41,4.41-4.41s4.41,1.98,4.41,4.41-1.99,4.41-4.41,4.41-4.41-1.99-4.41-4.41"/>
      <path class="cls-14" d="M207.24,187.43c0-2.43,1.99-4.41,4.41-4.41s4.41,1.98,4.41,4.41-1.98,4.41-4.41,4.41-4.41-1.99-4.41-4.41"/>
      <path class="cls-3" d="M207.24,187.43c0-2.43,1.99-4.41,4.41-4.41s4.41,1.98,4.41,4.41-1.98,4.41-4.41,4.41-4.41-1.99-4.41-4.41"/>
      <path class="cls-23" d="M260.58,121.34c0-2.42,1.98-4.41,4.41-4.41s4.41,1.99,4.41,4.41-1.99,4.41-4.41,4.41-4.41-1.98-4.41-4.41"/>
      <path class="cls-3" d="M260.58,121.34c0-2.42,1.98-4.41,4.41-4.41s4.41,1.99,4.41,4.41-1.99,4.41-4.41,4.41-4.41-1.98-4.41-4.41"/>
      <path class="cls-23" d="M161.45,231.49c0-2.43,1.98-4.41,4.41-4.41s4.41,1.98,4.41,4.41-1.99,4.41-4.41,4.41-4.41-1.99-4.41-4.41"/>
      <path class="cls-3" d="M161.45,231.49c0-2.43,1.98-4.41,4.41-4.41s4.41,1.98,4.41,4.41-1.99,4.41-4.41,4.41-4.41-1.99-4.41-4.41"/>
      <path class="cls-19" d="M181.8,213.66c0-2.43,1.98-4.41,4.41-4.41s4.41,1.98,4.41,4.41-1.99,4.4-4.41,4.4-4.41-1.98-4.41-4.4"/>
      <path class="cls-3" d="M181.8,213.66c0-2.43,1.98-4.41,4.41-4.41s4.41,1.98,4.41,4.41-1.99,4.4-4.41,4.4-4.41-1.98-4.41-4.4"/>
      <path class="cls-14" d="M308.4,103.51c0-2.43,1.98-4.41,4.41-4.41s4.41,1.98,4.41,4.41-1.99,4.41-4.41,4.41-4.41-1.99-4.41-4.41"/>
      <path class="cls-3" d="M308.4,103.51c0-2.43,1.98-4.41,4.41-4.41s4.41,1.98,4.41,4.41-1.99,4.41-4.41,4.41-4.41-1.99-4.41-4.41"/>
      <path class="cls-19" d="M298.83,123.44c0-2.43,1.98-4.41,4.41-4.41s4.41,1.98,4.41,4.41-1.99,4.41-4.41,4.41-4.41-1.99-4.41-4.41"/>
      <path class="cls-3" d="M298.83,123.44c0-2.43,1.98-4.41,4.41-4.41s4.41,1.98,4.41,4.41-1.99,4.41-4.41,4.41-4.41-1.99-4.41-4.41"/>
      <path class="cls-22" d="M229.84,164.35c0-2.42,1.98-4.41,4.4-4.41s4.41,1.99,4.41,4.41-1.98,4.41-4.41,4.41-4.4-1.98-4.4-4.41"/>
      <path class="cls-3" d="M229.84,164.35c0-2.42,1.98-4.41,4.4-4.41s4.41,1.99,4.41,4.41-1.98,4.41-4.41,4.41-4.4-1.98-4.4-4.41"/>
      <path class="cls-24" d="M227.59,176.94c0-2.43,1.99-4.41,4.41-4.41s4.41,1.98,4.41,4.41-1.98,4.41-4.41,4.41-4.41-1.99-4.41-4.41"/>
      <path class="cls-3" d="M227.59,176.94c0-2.43,1.99-4.41,4.41-4.41s4.41,1.98,4.41,4.41-1.98,4.41-4.41,4.41-4.41-1.99-4.41-4.41"/>
      <path class="cls-19" d="M237.77,170.64c0-2.42,1.98-4.4,4.41-4.4s4.41,1.98,4.41,4.4-1.99,4.41-4.41,4.41-4.41-1.98-4.41-4.41"/>
      <path class="cls-3" d="M237.77,170.64c0-2.42,1.98-4.4,4.41-4.4s4.41,1.98,4.41,4.4-1.99,4.41-4.41,4.41-4.41-1.98-4.41-4.41"/>
      <path class="cls-19" d="M247.95,139.17c0-2.42,1.98-4.4,4.41-4.4s4.4,1.98,4.4,4.4-1.98,4.41-4.4,4.41-4.41-1.98-4.41-4.41"/>
      <path class="cls-3" d="M247.95,139.17c0-2.42,1.98-4.4,4.41-4.4s4.4,1.98,4.4,4.4-1.98,4.41-4.4,4.41-4.41-1.98-4.41-4.41"/>
      <path class="cls-24" d="M164.93,234.64c0-2.43,1.99-4.41,4.41-4.41s4.41,1.98,4.41,4.41-1.98,4.4-4.41,4.4-4.41-1.98-4.41-4.4"/>
      <path class="cls-3" d="M164.93,234.64c0-2.43,1.99-4.41,4.41-4.41s4.41,1.98,4.41,4.41-1.98,4.4-4.41,4.4-4.41-1.98-4.41-4.4"/>
      <path class="cls-24" d="M242.86,164.35c0-2.42,1.98-4.41,4.41-4.41s4.41,1.99,4.41,4.41-1.99,4.41-4.41,4.41-4.41-1.98-4.41-4.41"/>
      <path class="cls-3" d="M242.86,164.35c0-2.42,1.98-4.41,4.41-4.41s4.41,1.99,4.41,4.41-1.99,4.41-4.41,4.41-4.41-1.98-4.41-4.41"/>
      <path class="cls-19" d="M263.99,142.32c0-2.42,1.99-4.41,4.41-4.41s4.41,1.99,4.41,4.41-1.98,4.41-4.41,4.41-4.41-1.98-4.41-4.41"/>
      <path class="cls-3" d="M263.99,142.32c0-2.42,1.99-4.41,4.41-4.41s4.41,1.99,4.41,4.41-1.98,4.41-4.41,4.41-4.41-1.98-4.41-4.41"/>
      <path class="cls-19" d="M168.35,217.85c0-2.42,1.98-4.41,4.41-4.41s4.41,1.99,4.41,4.41-1.99,4.41-4.41,4.41-4.41-1.98-4.41-4.41"/>
      <path class="cls-3" d="M168.35,217.85c0-2.42,1.98-4.41,4.41-4.41s4.41,1.99,4.41,4.41-1.99,4.41-4.41,4.41-4.41-1.98-4.41-4.41"/>
      <path class="cls-24" d="M278.48,143.37c0-2.42,1.98-4.41,4.41-4.41s4.4,1.99,4.4,4.41-1.98,4.41-4.4,4.41-4.41-1.98-4.41-4.41"/>
      <path class="cls-3" d="M278.48,143.37c0-2.42,1.98-4.41,4.41-4.41s4.4,1.99,4.4,4.41-1.98,4.41-4.4,4.41-4.41-1.98-4.41-4.41"/>
      <path class="cls-19" d="M233.25,163.3c0-2.42,1.99-4.41,4.41-4.41s4.41,1.99,4.41,4.41-1.98,4.41-4.41,4.41-4.41-1.98-4.41-4.41"/>
      <path class="cls-3" d="M233.25,163.3c0-2.42,1.99-4.41,4.41-4.41s4.41,1.99,4.41,4.41-1.98,4.41-4.41,4.41-4.41-1.98-4.41-4.41"/>
      <path class="cls-24" d="M223,165.4c0-2.43,1.99-4.41,4.41-4.41s4.41,1.98,4.41,4.41-1.98,4.41-4.41,4.41-4.41-1.99-4.41-4.41"/>
      <path class="cls-3" d="M223,165.4c0-2.43,1.99-4.41,4.41-4.41s4.41,1.98,4.41,4.41-1.98,4.41-4.41,4.41-4.41-1.99-4.41-4.41"/>
      <path class="cls-19" d="M212.33,185.33c0-2.42,1.98-4.41,4.41-4.41s4.41,1.99,4.41,4.41-1.99,4.41-4.41,4.41-4.41-1.98-4.41-4.41"/>
      <path class="cls-3" d="M212.33,185.33c0-2.42,1.98-4.41,4.41-4.41s4.41,1.99,4.41,4.41-1.99,4.41-4.41,4.41-4.41-1.98-4.41-4.41"/>
      <path class="cls-14" d="M291.32,119.24c0-2.42,1.99-4.41,4.41-4.41s4.41,1.99,4.41,4.41-1.98,4.41-4.41,4.41-4.41-1.98-4.41-4.41"/>
      <path class="cls-3" d="M291.32,119.24c0-2.42,1.99-4.41,4.41-4.41s4.41,1.99,4.41,4.41-1.98,4.41-4.41,4.41-4.41-1.98-4.41-4.41"/>
      <path class="cls-24" d="M253.04,130.78c0-2.42,1.98-4.41,4.4-4.41s4.41,1.99,4.41,4.41-1.98,4.41-4.41,4.41-4.4-1.98-4.4-4.41"/>
      <path class="cls-3" d="M253.04,130.78c0-2.42,1.98-4.41,4.4-4.41s4.41,1.99,4.41,4.41-1.98,4.41-4.41,4.41-4.4-1.98-4.4-4.41"/>
      <path class="cls-24" d="M303.92,146.52c0-2.43,1.98-4.41,4.41-4.41s4.41,1.98,4.41,4.41-1.99,4.41-4.41,4.41-4.41-1.99-4.41-4.41"/>
      <path class="cls-3" d="M303.92,146.52c0-2.43,1.98-4.41,4.41-4.41s4.41,1.98,4.41,4.41-1.99,4.41-4.41,4.41-4.41-1.99-4.41-4.41"/>
      <path class="cls-22" d="M281.07,145.47c0-2.43,1.99-4.41,4.41-4.41s4.41,1.98,4.41,4.41-1.98,4.41-4.41,4.41-4.41-1.99-4.41-4.41"/>
      <path class="cls-3" d="M281.07,145.47c0-2.43,1.99-4.41,4.41-4.41s4.41,1.98,4.41,4.41-1.98,4.41-4.41,4.41-4.41-1.99-4.41-4.41"/>
      <path class="cls-14" d="M240.08,142.32c0-2.42,1.99-4.41,4.41-4.41s4.41,1.99,4.41,4.41-1.98,4.41-4.41,4.41-4.41-1.98-4.41-4.41"/>
      <path class="cls-3" d="M240.08,142.32c0-2.42,1.99-4.41,4.41-4.41s4.41,1.99,4.41,4.41-1.98,4.41-4.41,4.41-4.41-1.98-4.41-4.41"/>
      <path class="cls-19" d="M304.98,102.46c0-2.43,1.99-4.41,4.41-4.41s4.41,1.98,4.41,4.41-1.98,4.41-4.41,4.41-4.41-1.99-4.41-4.41"/>
      <path class="cls-3" d="M304.98,102.46c0-2.43,1.99-4.41,4.41-4.41s4.41,1.98,4.41,4.41-1.98,4.41-4.41,4.41-4.41-1.99-4.41-4.41"/>
      <path class="cls-22" d="M311.82,99.31c0-2.42,1.98-4.41,4.41-4.41s4.4,1.99,4.4,4.41-1.98,4.41-4.4,4.41-4.41-1.98-4.41-4.41"/>
      <path class="cls-3" d="M311.82,99.31c0-2.42,1.98-4.41,4.41-4.41s4.4,1.99,4.4,4.41-1.98,4.41-4.4,4.41-4.41-1.98-4.41-4.41"/>
      <path class="cls-24" d="M141.09,167.5c0-2.43,1.99-4.41,4.41-4.41s4.41,1.98,4.41,4.41-1.98,4.41-4.41,4.41-4.41-1.99-4.41-4.41"/>
      <path class="cls-3" d="M141.09,167.5c0-2.43,1.99-4.41,4.41-4.41s4.41,1.98,4.41,4.41-1.98,4.41-4.41,4.41-4.41-1.99-4.41-4.41"/>
      <path class="cls-14" d="M383.55,15.39c0-2.43,1.98-4.41,4.41-4.41s4.41,1.98,4.41,4.41-1.99,4.41-4.41,4.41-4.41-1.99-4.41-4.41"/>
      <path class="cls-3" d="M383.55,15.39c0-2.43,1.98-4.41,4.41-4.41s4.41,1.98,4.41,4.41-1.99,4.41-4.41,4.41-4.41-1.99-4.41-4.41"/>
      <path class="cls-14" d="M161.52,226.24c0-2.42,1.98-4.41,4.41-4.41s4.41,1.99,4.41,4.41-1.99,4.41-4.41,4.41-4.41-1.98-4.41-4.41"/>
      <path class="cls-3" d="M161.52,226.24c0-2.42,1.98-4.41,4.41-4.41s4.41,1.99,4.41,4.41-1.99,4.41-4.41,4.41-4.41-1.98-4.41-4.41"/>
      <path class="cls-24" d="M147.86,238.83c0-2.42,1.98-4.41,4.4-4.41s4.41,1.99,4.41,4.41-1.98,4.41-4.41,4.41-4.4-1.98-4.4-4.41"/>
      <path class="cls-3" d="M147.86,238.83c0-2.42,1.98-4.41,4.4-4.41s4.41,1.99,4.41,4.41-1.98,4.41-4.41,4.41-4.4-1.98-4.4-4.41"/>
      <path class="cls-24" d="M151.27,207.36c0-2.42,1.98-4.41,4.41-4.41s4.41,1.99,4.41,4.41-1.99,4.41-4.41,4.41-4.41-1.98-4.41-4.41"/>
      <path class="cls-3" d="M151.27,207.36c0-2.42,1.98-4.41,4.41-4.41s4.41,1.99,4.41,4.41-1.99,4.41-4.41,4.41-4.41-1.98-4.41-4.41"/>
      <path class="cls-24" d="M130.92,246.17c0-2.42,1.98-4.4,4.41-4.4s4.41,1.98,4.41,4.4-1.99,4.41-4.41,4.41-4.41-1.98-4.41-4.41"/>
      <path class="cls-3" d="M130.92,246.17c0-2.42,1.98-4.4,4.41-4.4s4.41,1.98,4.41,4.4-1.99,4.41-4.41,4.41-4.41-1.98-4.41-4.41"/>
      <path class="cls-14" d="M304.98,67.84c0-2.42,1.99-4.41,4.41-4.41s4.41,1.99,4.41,4.41-1.98,4.41-4.41,4.41-4.41-1.98-4.41-4.41"/>
      <path class="cls-3" d="M304.98,67.84c0-2.42,1.99-4.41,4.41-4.41s4.41,1.99,4.41,4.41-1.98,4.41-4.41,4.41-4.41-1.98-4.41-4.41"/>
      <path class="cls-22" d="M283.56,121.34c0-2.42,1.99-4.41,4.41-4.41s4.41,1.99,4.41,4.41-1.98,4.41-4.41,4.41-4.41-1.98-4.41-4.41"/>
      <path class="cls-3" d="M283.56,121.34c0-2.42,1.99-4.41,4.41-4.41s4.41,1.99,4.41,4.41-1.98,4.41-4.41,4.41-4.41-1.98-4.41-4.41"/>
      <path class="cls-24" d="M205.92,206.31c0-2.42,1.99-4.41,4.41-4.41s4.41,1.99,4.41,4.41-1.98,4.41-4.41,4.41-4.41-1.98-4.41-4.41"/>
      <path class="cls-3" d="M205.92,206.31c0-2.42,1.99-4.41,4.41-4.41s4.41,1.99,4.41,4.41-1.98,4.41-4.41,4.41-4.41-1.98-4.41-4.41"/>
      <path class="cls-19" d="M263.99,155.96c0-2.43,1.99-4.41,4.41-4.41s4.41,1.98,4.41,4.41-1.98,4.41-4.41,4.41-4.41-1.99-4.41-4.41"/>
      <path class="cls-3" d="M263.99,155.96c0-2.43,1.99-4.41,4.41-4.41s4.41,1.98,4.41,4.41-1.98,4.41-4.41,4.41-4.41-1.99-4.41-4.41"/>
      <path class="cls-23" d="M325.48,83.58c0-2.43,1.98-4.41,4.41-4.41s4.41,1.98,4.41,4.41-1.99,4.4-4.41,4.4-4.41-1.98-4.41-4.4"/>
      <path class="cls-3" d="M325.48,83.58c0-2.43,1.98-4.41,4.41-4.41s4.41,1.98,4.41,4.41-1.99,4.4-4.41,4.4-4.41-1.98-4.41-4.4"/>
      <path class="cls-23" d="M236.67,163.3c0-2.42,1.98-4.41,4.41-4.41s4.41,1.99,4.41,4.41-1.99,4.41-4.41,4.41-4.41-1.98-4.41-4.41"/>
      <path class="cls-3" d="M236.67,163.3c0-2.42,1.98-4.41,4.41-4.41s4.41,1.99,4.41,4.41-1.99,4.41-4.41,4.41-4.41-1.98-4.41-4.41"/>
      <path class="cls-23" d="M328.9,74.13c0-2.42,1.98-4.4,4.4-4.4s4.41,1.98,4.41,4.4-1.98,4.41-4.41,4.41-4.4-1.98-4.4-4.41"/>
      <path class="cls-3" d="M328.9,74.13c0-2.42,1.98-4.4,4.4-4.4s4.41,1.98,4.41,4.4-1.98,4.41-4.41,4.41-4.4-1.98-4.4-4.41"/>
      <path class="cls-23" d="M263.99,145.47c0-2.43,1.99-4.41,4.41-4.41s4.41,1.98,4.41,4.41-1.98,4.41-4.41,4.41-4.41-1.99-4.41-4.41"/>
      <path class="cls-3" d="M263.99,145.47c0-2.43,1.99-4.41,4.41-4.41s4.41,1.98,4.41,4.41-1.98,4.41-4.41,4.41-4.41-1.99-4.41-4.41"/>
      <path class="cls-23" d="M232.68,152.81c0-2.42,1.99-4.41,4.41-4.41s4.41,1.99,4.41,4.41-1.98,4.41-4.41,4.41-4.41-1.98-4.41-4.41"/>
      <path class="cls-3" d="M232.68,152.81c0-2.42,1.99-4.41,4.41-4.41s4.41,1.99,4.41,4.41-1.98,4.41-4.41,4.41-4.41-1.98-4.41-4.41"/>
      <path class="cls-23" d="M181.8,215.75c0-2.42,1.98-4.41,4.41-4.41s4.41,1.99,4.41,4.41-1.99,4.41-4.41,4.41-4.41-1.98-4.41-4.41"/>
      <path class="cls-3" d="M181.8,215.75c0-2.42,1.98-4.41,4.41-4.41s4.41,1.99,4.41,4.41-1.99,4.41-4.41,4.41-4.41-1.98-4.41-4.41"/>
      <path class="cls-18" d="M301.57,114c0-2.43,1.98-4.41,4.41-4.41s4.41,1.98,4.41,4.41-1.99,4.41-4.41,4.41-4.41-1.99-4.41-4.41"/>
      <path class="cls-3" d="M301.57,114c0-2.43,1.98-4.41,4.41-4.41s4.41,1.98,4.41,4.41-1.99,4.41-4.41,4.41-4.41-1.99-4.41-4.41"/>
      <path class="cls-6" d="M233.25,179.04c0-2.43,1.99-4.41,4.41-4.41s4.41,1.98,4.41,4.41-1.98,4.41-4.41,4.41-4.41-1.99-4.41-4.41"/>
      <path class="cls-3" d="M233.25,179.04c0-2.43,1.99-4.41,4.41-4.41s4.41,1.98,4.41,4.41-1.98,4.41-4.41,4.41-4.41-1.99-4.41-4.41"/>
      <path class="cls-18" d="M212.33,179.04c0-2.43,1.98-4.41,4.41-4.41s4.41,1.98,4.41,4.41-1.99,4.41-4.41,4.41-4.41-1.99-4.41-4.41"/>
      <path class="cls-3" d="M212.33,179.04c0-2.43,1.98-4.41,4.41-4.41s4.41,1.98,4.41,4.41-1.99,4.41-4.41,4.41-4.41-1.99-4.41-4.41"/>
      <path class="cls-18" d="M332.31,63.64c0-2.42,1.99-4.4,4.41-4.4s4.41,1.98,4.41,4.4-1.98,4.41-4.41,4.41-4.41-1.98-4.41-4.41"/>
      <path class="cls-3" d="M332.31,63.64c0-2.42,1.99-4.4,4.41-4.4s4.41,1.98,4.41,4.4-1.98,4.41-4.41,4.41-4.41-1.98-4.41-4.41"/>
      <path class="cls-22" d="M226.42,146.52c0-2.43,1.98-4.41,4.41-4.41s4.41,1.98,4.41,4.41-1.99,4.41-4.41,4.41-4.41-1.99-4.41-4.41"/>
      <path class="cls-3" d="M226.42,146.52c0-2.43,1.98-4.41,4.41-4.41s4.41,1.98,4.41,4.41-1.99,4.41-4.41,4.41-4.41-1.99-4.41-4.41"/>
      <path class="cls-22" d="M205.92,176.94c0-2.43,1.99-4.41,4.41-4.41s4.41,1.98,4.41,4.41-1.98,4.41-4.41,4.41-4.41-1.99-4.41-4.41"/>
      <path class="cls-3" d="M205.92,176.94c0-2.43,1.99-4.41,4.41-4.41s4.41,1.98,4.41,4.41-1.98,4.41-4.41,4.41-4.41-1.99-4.41-4.41"/>
      <path class="cls-18" d="M242.86,167.5c0-2.43,1.98-4.41,4.41-4.41s4.41,1.98,4.41,4.41-1.99,4.41-4.41,4.41-4.41-1.99-4.41-4.41"/>
      <path class="cls-3" d="M242.86,167.5c0-2.43,1.98-4.41,4.41-4.41s4.41,1.98,4.41,4.41-1.99,4.41-4.41,4.41-4.41-1.99-4.41-4.41"/>
      <path class="cls-22" d="M370.06,47.91c0-2.43,1.99-4.41,4.41-4.41s4.41,1.98,4.41,4.41-1.98,4.41-4.41,4.41-4.41-1.99-4.41-4.41"/>
      <path class="cls-3" d="M370.06,47.91c0-2.43,1.99-4.41,4.41-4.41s4.41,1.98,4.41,4.41-1.98,4.41-4.41,4.41-4.41-1.99-4.41-4.41"/>
      <path class="cls-18" d="M216.17,181.14c0-2.43,1.99-4.41,4.41-4.41s4.41,1.98,4.41,4.41-1.98,4.4-4.41,4.4-4.41-1.98-4.41-4.4"/>
      <path class="cls-3" d="M216.17,181.14c0-2.43,1.99-4.41,4.41-4.41s4.41,1.98,4.41,4.41-1.98,4.4-4.41,4.4-4.41-1.98-4.41-4.4"/>
      <path class="cls-6" d="M222.51,194.77c0-2.42,1.98-4.41,4.4-4.41s4.41,1.99,4.41,4.41-1.98,4.41-4.41,4.41-4.4-1.98-4.4-4.41"/>
      <path class="cls-3" d="M222.51,194.77c0-2.42,1.98-4.41,4.4-4.41s4.41,1.99,4.41,4.41-1.98,4.41-4.41,4.41-4.4-1.98-4.4-4.41"/>
      <path class="cls-18" d="M304.98,85.67c0-2.42,1.99-4.41,4.41-4.41s4.41,1.99,4.41,4.41-1.98,4.41-4.41,4.41-4.41-1.98-4.41-4.41"/>
      <path class="cls-3" d="M304.98,85.67c0-2.42,1.99-4.41,4.41-4.41s4.41,1.99,4.41,4.41-1.98,4.41-4.41,4.41-4.41-1.98-4.41-4.41"/>
      <path class="cls-18" d="M298.83,118.19c0-2.42,1.98-4.41,4.41-4.41s4.41,1.99,4.41,4.41-1.99,4.41-4.41,4.41-4.41-1.98-4.41-4.41"/>
      <path class="cls-3" d="M298.83,118.19c0-2.42,1.98-4.41,4.41-4.41s4.41,1.99,4.41,4.41-1.99,4.41-4.41,4.41-4.41-1.98-4.41-4.41"/>
      <path class="cls-22" d="M260.58,179.04c0-2.43,1.98-4.41,4.41-4.41s4.41,1.98,4.41,4.41-1.99,4.41-4.41,4.41-4.41-1.99-4.41-4.41"/>
      <path class="cls-3" d="M260.58,179.04c0-2.43,1.98-4.41,4.41-4.41s4.41,1.98,4.41,4.41-1.99,4.41-4.41,4.41-4.41-1.99-4.41-4.41"/>
      <path class="cls-14" d="M260.58,140.22c0-2.42,1.98-4.41,4.41-4.41s4.41,1.99,4.41,4.41-1.99,4.41-4.41,4.41-4.41-1.98-4.41-4.41"/>
      <path class="cls-3" d="M260.58,140.22c0-2.42,1.98-4.41,4.41-4.41s4.41,1.99,4.41,4.41-1.99,4.41-4.41,4.41-4.41-1.98-4.41-4.41"/>
      <path class="cls-23" d="M182.01,206.31c0-2.42,1.99-4.41,4.41-4.41s4.41,1.99,4.41,4.41-1.98,4.41-4.41,4.41-4.41-1.98-4.41-4.41"/>
      <path class="cls-3" d="M182.01,206.31c0-2.42,1.99-4.41,4.41-4.41s4.41,1.99,4.41,4.41-1.98,4.41-4.41,4.41-4.41-1.98-4.41-4.41"/>
      <path class="cls-14" d="M232.68,175.89c0-2.42,1.99-4.41,4.41-4.41s4.41,1.99,4.41,4.41-1.98,4.41-4.41,4.41-4.41-1.99-4.41-4.41"/>
      <path class="cls-3" d="M232.68,175.89c0-2.42,1.99-4.41,4.41-4.41s4.41,1.99,4.41,4.41-1.98,4.41-4.41,4.41-4.41-1.99-4.41-4.41"/>
      <path class="cls-24" d="M246.92,163.3c0-2.42,1.98-4.41,4.4-4.41s4.41,1.99,4.41,4.41-1.98,4.41-4.41,4.41-4.4-1.98-4.4-4.41"/>
      <path class="cls-3" d="M246.92,163.3c0-2.42,1.98-4.41,4.4-4.41s4.41,1.99,4.41,4.41-1.98,4.41-4.41,4.41-4.4-1.98-4.4-4.41"/>
      <path class="cls-14" d="M185.43,228.34c0-2.42,1.98-4.41,4.41-4.41s4.41,1.99,4.41,4.41-1.99,4.41-4.41,4.41-4.41-1.98-4.41-4.41"/>
      <path class="cls-3" d="M185.43,228.34c0-2.42,1.98-4.41,4.41-4.41s4.41,1.99,4.41,4.41-1.99,4.41-4.41,4.41-4.41-1.98-4.41-4.41"/>
      <path class="cls-24" d="M253.75,141.27c0-2.42,1.98-4.41,4.41-4.41s4.4,1.99,4.4,4.41-1.98,4.41-4.4,4.41-4.41-1.98-4.41-4.41"/>
      <path class="cls-3" d="M253.75,141.27c0-2.42,1.98-4.41,4.41-4.41s4.4,1.99,4.4,4.41-1.98,4.41-4.4,4.41-4.41-1.98-4.41-4.41"/>
      <path class="cls-14" d="M171.62,217.85c0-2.42,1.99-4.41,4.41-4.41s4.41,1.99,4.41,4.41-1.98,4.41-4.41,4.41-4.41-1.98-4.41-4.41"/>
      <path class="cls-3" d="M171.62,217.85c0-2.42,1.99-4.41,4.41-4.41s4.41,1.99,4.41,4.41-1.98,4.41-4.41,4.41-4.41-1.98-4.41-4.41"/>
      <path class="cls-23" d="M287.91,119.24c0-2.42,1.98-4.41,4.4-4.41s4.41,1.99,4.41,4.41-1.98,4.41-4.41,4.41-4.4-1.98-4.4-4.41"/>
      <path class="cls-3" d="M287.91,119.24c0-2.42,1.98-4.41,4.4-4.41s4.41,1.99,4.41,4.41-1.98,4.41-4.41,4.41-4.4-1.98-4.4-4.41"/>
      <path class="cls-23" d="M161.45,227.29c0-2.42,1.98-4.41,4.41-4.41s4.41,1.99,4.41,4.41-1.99,4.41-4.41,4.41-4.41-1.98-4.41-4.41"/>
      <path class="cls-3" d="M161.45,227.29c0-2.42,1.98-4.41,4.41-4.41s4.41,1.99,4.41,4.41-1.99,4.41-4.41,4.41-4.41-1.98-4.41-4.41"/>
      <path class="cls-19" d="M120.74,265.06c0-2.43,1.99-4.41,4.41-4.41s4.41,1.98,4.41,4.41-1.98,4.41-4.41,4.41-4.41-1.99-4.41-4.41"/>
      <path class="cls-3" d="M120.74,265.06c0-2.43,1.99-4.41,4.41-4.41s4.41,1.98,4.41,4.41-1.98,4.41-4.41,4.41-4.41-1.99-4.41-4.41"/>
      <path class="cls-14" d="M267.41,147.57c0-2.43,1.98-4.41,4.41-4.41s4.41,1.98,4.41,4.41-1.99,4.41-4.41,4.41-4.41-1.99-4.41-4.41"/>
      <path class="cls-3" d="M267.41,147.57c0-2.43,1.98-4.41,4.41-4.41s4.41,1.98,4.41,4.41-1.99,4.41-4.41,4.41-4.41-1.99-4.41-4.41"/>
      <path class="cls-19" d="M273.39,145.47c0-2.43,1.98-4.41,4.41-4.41s4.41,1.98,4.41,4.41-1.99,4.41-4.41,4.41-4.41-1.99-4.41-4.41"/>
      <path class="cls-3" d="M273.39,145.47c0-2.43,1.98-4.41,4.41-4.41s4.41,1.98,4.41,4.41-1.99,4.41-4.41,4.41-4.41-1.99-4.41-4.41"/>
      <path class="cls-22" d="M178.6,207.36c0-2.42,1.98-4.41,4.41-4.41s4.41,1.99,4.41,4.41-1.99,4.41-4.41,4.41-4.41-1.98-4.41-4.41"/>
      <path class="cls-3" d="M178.6,207.36c0-2.42,1.98-4.41,4.41-4.41s4.41,1.99,4.41,4.41-1.99,4.41-4.41,4.41-4.41-1.98-4.41-4.41"/>
      <path class="cls-24" d="M191.98,205.26c0-2.42,1.98-4.41,4.41-4.41s4.4,1.99,4.4,4.41-1.98,4.41-4.4,4.41-4.41-1.98-4.41-4.41"/>
      <path class="cls-3" d="M191.98,205.26c0-2.42,1.98-4.41,4.41-4.41s4.4,1.99,4.4,4.41-1.98,4.41-4.4,4.41-4.41-1.98-4.41-4.41"/>
      <path class="cls-19" d="M258.12,165.4c0-2.43,1.99-4.41,4.41-4.41s4.41,1.98,4.41,4.41-1.98,4.41-4.41,4.41-4.41-1.99-4.41-4.41"/>
      <path class="cls-3" d="M258.12,165.4c0-2.43,1.99-4.41,4.41-4.41s4.41,1.98,4.41,4.41-1.98,4.41-4.41,4.41-4.41-1.99-4.41-4.41"/>
      <path class="cls-19" d="M191.98,209.46c0-2.43,1.98-4.41,4.41-4.41s4.4,1.98,4.4,4.41-1.98,4.41-4.4,4.41-4.41-1.99-4.41-4.41"/>
      <path class="cls-3" d="M191.98,209.46c0-2.43,1.98-4.41,4.41-4.41s4.4,1.98,4.4,4.41-1.98,4.41-4.4,4.41-4.41-1.99-4.41-4.41"/>
      <path class="cls-24" d="M188.85,217.85c0-2.42,1.98-4.41,4.4-4.41s4.41,1.99,4.41,4.41-1.98,4.41-4.41,4.41-4.4-1.98-4.4-4.41"/>
      <path class="cls-3" d="M188.85,217.85c0-2.42,1.98-4.41,4.4-4.41s4.41,1.99,4.41,4.41-1.98,4.41-4.41,4.41-4.4-1.98-4.4-4.41"/>
      <path class="cls-24" d="M166.54,222.05c0-2.43,1.98-4.41,4.4-4.41s4.41,1.98,4.41,4.41-1.98,4.41-4.41,4.41-4.4-1.99-4.4-4.41"/>
      <path class="cls-3" d="M166.54,222.05c0-2.43,1.98-4.41,4.4-4.41s4.41,1.98,4.41,4.41-1.98,4.41-4.41,4.41-4.4-1.99-4.4-4.41"/>
      <path class="cls-19" d="M202.51,206.31c0-2.42,1.98-4.41,4.41-4.41s4.41,1.99,4.41,4.41-1.99,4.41-4.41,4.41-4.41-1.98-4.41-4.41"/>
      <path class="cls-3" d="M202.51,206.31c0-2.42,1.98-4.41,4.41-4.41s4.41,1.99,4.41,4.41-1.99,4.41-4.41,4.41-4.41-1.98-4.41-4.41"/>
      <path class="cls-19" d="M192.26,198.97c0-2.43,1.99-4.41,4.41-4.41s4.41,1.98,4.41,4.41-1.98,4.41-4.41,4.41-4.41-1.99-4.41-4.41"/>
      <path class="cls-3" d="M192.26,198.97c0-2.43,1.99-4.41,4.41-4.41s4.41,1.98,4.41,4.41-1.98,4.41-4.41,4.41-4.41-1.99-4.41-4.41"/>
      <path class="cls-24" d="M197.06,197.92c0-2.43,1.99-4.41,4.41-4.41s4.41,1.98,4.41,4.41-1.98,4.41-4.41,4.41-4.41-1.99-4.41-4.41"/>
      <path class="cls-3" d="M197.06,197.92c0-2.43,1.99-4.41,4.41-4.41s4.41,1.98,4.41,4.41-1.98,4.41-4.41,4.41-4.41-1.99-4.41-4.41"/>
      <path class="cls-19" d="M250.33,152.81c0-2.42,1.99-4.41,4.41-4.41s4.41,1.99,4.41,4.41-1.99,4.41-4.41,4.41-4.41-1.98-4.41-4.41"/>
      <path class="cls-3" d="M250.33,152.81c0-2.42,1.99-4.41,4.41-4.41s4.41,1.99,4.41,4.41-1.99,4.41-4.41,4.41-4.41-1.98-4.41-4.41"/>
      <path class="cls-24" d="M229.84,160.15c0-2.42,1.98-4.4,4.4-4.4s4.41,1.98,4.41,4.4-1.98,4.41-4.41,4.41-4.4-1.98-4.4-4.41"/>
      <path class="cls-3" d="M229.84,160.15c0-2.42,1.98-4.4,4.4-4.4s4.41,1.98,4.41,4.4-1.98,4.41-4.41,4.41-4.4-1.98-4.4-4.41"/>
      <path class="cls-19" d="M227.59,157.01c0-2.43,1.99-4.41,4.41-4.41s4.41,1.98,4.41,4.41-1.98,4.41-4.41,4.41-4.41-1.99-4.41-4.41"/>
      <path class="cls-3" d="M227.59,157.01c0-2.43,1.99-4.41,4.41-4.41s4.41,1.98,4.41,4.41-1.98,4.41-4.41,4.41-4.41-1.99-4.41-4.41"/>
      <path class="cls-14" d="M287.91,132.88c0-2.42,1.98-4.41,4.4-4.41s4.41,1.99,4.41,4.41-1.98,4.41-4.41,4.41-4.4-1.99-4.4-4.41"/>
      <path class="cls-3" d="M287.91,132.88c0-2.42,1.98-4.41,4.4-4.41s4.41,1.99,4.41,4.41-1.98,4.41-4.41,4.41-4.4-1.99-4.4-4.41"/>
      <path class="cls-24" d="M207.24,179.04c0-2.43,1.99-4.41,4.41-4.41s4.41,1.98,4.41,4.41-1.98,4.41-4.41,4.41-4.41-1.99-4.41-4.41"/>
      <path class="cls-3" d="M207.24,179.04c0-2.43,1.99-4.41,4.41-4.41s4.41,1.98,4.41,4.41-1.98,4.41-4.41,4.41-4.41-1.99-4.41-4.41"/>
      <path class="cls-24" d="M242.86,106.65c0-2.42,1.98-4.4,4.41-4.4s4.41,1.98,4.41,4.4-1.99,4.41-4.41,4.41-4.41-1.98-4.41-4.41"/>
      <path class="cls-3" d="M242.86,106.65c0-2.42,1.98-4.4,4.41-4.4s4.41,1.98,4.41,4.4-1.99,4.41-4.41,4.41-4.41-1.98-4.41-4.41"/>
      <path class="cls-22" d="M233.25,184.28c0-2.42,1.99-4.41,4.41-4.41s4.41,1.99,4.41,4.41-1.98,4.41-4.41,4.41-4.41-1.98-4.41-4.41"/>
      <path class="cls-3" d="M233.25,184.28c0-2.42,1.99-4.41,4.41-4.41s4.41,1.99,4.41,4.41-1.98,4.41-4.41,4.41-4.41-1.98-4.41-4.41"/>
      <path class="cls-14" d="M168.35,208.41c0-2.42,1.98-4.41,4.41-4.41s4.41,1.99,4.41,4.41-1.99,4.41-4.41,4.41-4.41-1.99-4.41-4.41"/>
      <path class="cls-3" d="M168.35,208.41c0-2.42,1.98-4.41,4.41-4.41s4.41,1.99,4.41,4.41-1.99,4.41-4.41,4.41-4.41-1.99-4.41-4.41"/>
      <path class="cls-19" d="M236.67,185.33c0-2.42,1.98-4.41,4.41-4.41s4.41,1.99,4.41,4.41-1.99,4.41-4.41,4.41-4.41-1.98-4.41-4.41"/>
      <path class="cls-3" d="M236.67,185.33c0-2.42,1.98-4.41,4.41-4.41s4.41,1.99,4.41,4.41-1.99,4.41-4.41,4.41-4.41-1.98-4.41-4.41"/>
      <path class="cls-22" d="M294.74,105.61c0-2.43,1.98-4.41,4.41-4.41s4.41,1.98,4.41,4.41-1.99,4.4-4.41,4.4-4.41-1.98-4.41-4.4"/>
      <path class="cls-3" d="M294.74,105.61c0-2.43,1.98-4.41,4.41-4.41s4.41,1.98,4.41,4.41-1.99,4.4-4.41,4.4-4.41-1.98-4.41-4.4"/>
      <path class="cls-24" d="M242.86,119.24c0-2.42,1.98-4.41,4.41-4.41s4.41,1.99,4.41,4.41-1.99,4.41-4.41,4.41-4.41-1.98-4.41-4.41"/>
      <path class="cls-3" d="M242.86,119.24c0-2.42,1.98-4.41,4.41-4.41s4.41,1.99,4.41,4.41-1.99,4.41-4.41,4.41-4.41-1.98-4.41-4.41"/>
      <path class="cls-14" d="M311.82,73.09c0-2.43,1.98-4.41,4.41-4.41s4.4,1.98,4.4,4.41-1.98,4.4-4.4,4.4-4.41-1.98-4.41-4.4"/>
      <path class="cls-3" d="M311.82,73.09c0-2.43,1.98-4.41,4.41-4.41s4.4,1.98,4.4,4.41-1.98,4.4-4.4,4.4-4.41-1.98-4.41-4.4"/>
      <path class="cls-14" d="M207.24,177.99c0-2.43,1.99-4.41,4.41-4.41s4.41,1.98,4.41,4.41-1.98,4.41-4.41,4.41-4.41-1.99-4.41-4.41"/>
      <path class="cls-3" d="M207.24,177.99c0-2.43,1.99-4.41,4.41-4.41s4.41,1.98,4.41,4.41-1.98,4.41-4.41,4.41-4.41-1.99-4.41-4.41"/>
      <path class="cls-24" d="M62.46,308.07c0-2.43,1.98-4.41,4.41-4.41s4.41,1.98,4.41,4.41-1.99,4.41-4.41,4.41-4.41-1.99-4.41-4.41"/>
      <path class="cls-3" d="M62.46,308.07c0-2.43,1.98-4.41,4.41-4.41s4.41,1.98,4.41,4.41-1.99,4.41-4.41,4.41-4.41-1.99-4.41-4.41"/>
      <path class="cls-24" d="M130.92,239.88c0-2.42,1.98-4.41,4.41-4.41s4.41,1.99,4.41,4.41-1.99,4.41-4.41,4.41-4.41-1.98-4.41-4.41"/>
      <path class="cls-3" d="M130.92,239.88c0-2.42,1.98-4.41,4.41-4.41s4.41,1.99,4.41,4.41-1.99,4.41-4.41,4.41-4.41-1.98-4.41-4.41"/>
      <path class="cls-24" d="M110.57,249.32c0-2.42,1.98-4.41,4.4-4.41s4.41,1.99,4.41,4.41-1.98,4.41-4.41,4.41-4.4-1.98-4.4-4.41"/>
      <path class="cls-3" d="M110.57,249.32c0-2.42,1.98-4.41,4.4-4.41s4.41,1.99,4.41,4.41-1.98,4.41-4.41,4.41-4.4-1.98-4.4-4.41"/>
      <path class="cls-14" d="M270.83,102.46c0-2.43,1.98-4.41,4.41-4.41s4.4,1.98,4.4,4.41-1.98,4.41-4.4,4.41-4.41-1.99-4.41-4.41"/>
      <path class="cls-3" d="M270.83,102.46c0-2.43,1.98-4.41,4.41-4.41s4.4,1.98,4.4,4.41-1.98,4.41-4.4,4.41-4.41-1.99-4.41-4.41"/>
      <path class="cls-22" d="M364.98,47.91c0-2.43,1.98-4.41,4.4-4.41s4.41,1.98,4.41,4.41-1.98,4.41-4.41,4.41-4.4-1.99-4.4-4.41"/>
      <path class="cls-3" d="M364.98,47.91c0-2.43,1.98-4.41,4.4-4.41s4.41,1.98,4.41,4.41-1.98,4.41-4.41,4.41-4.4-1.99-4.4-4.41"/>
      <path class="cls-24" d="M192.26,197.92c0-2.43,1.99-4.41,4.41-4.41s4.41,1.98,4.41,4.41-1.98,4.41-4.41,4.41-4.41-1.99-4.41-4.41"/>
      <path class="cls-3" d="M192.26,197.92c0-2.43,1.99-4.41,4.41-4.41s4.41,1.98,4.41,4.41-1.98,4.41-4.41,4.41-4.41-1.99-4.41-4.41"/>
      <path class="cls-19" d="M233.25,162.25c0-2.42,1.99-4.41,4.41-4.41s4.41,1.99,4.41,4.41-1.98,4.41-4.41,4.41-4.41-1.98-4.41-4.41"/>
      <path class="cls-3" d="M233.25,162.25c0-2.42,1.99-4.41,4.41-4.41s4.41,1.99,4.41,4.41-1.98,4.41-4.41,4.41-4.41-1.98-4.41-4.41"/>
      <path class="cls-23" d="M325.48,79.38c0-2.43,1.98-4.41,4.41-4.41s4.41,1.98,4.41,4.41-1.99,4.41-4.41,4.41-4.41-1.99-4.41-4.41"/>
      <path class="cls-3" d="M325.48,79.38c0-2.43,1.98-4.41,4.41-4.41s4.41,1.98,4.41,4.41-1.99,4.41-4.41,4.41-4.41-1.99-4.41-4.41"/>
      <path class="cls-23" d="M263.99,145.47c0-2.43,1.99-4.41,4.41-4.41s4.41,1.98,4.41,4.41-1.98,4.41-4.41,4.41-4.41-1.99-4.41-4.41"/>
      <path class="cls-3" d="M263.99,145.47c0-2.43,1.99-4.41,4.41-4.41s4.41,1.98,4.41,4.41-1.98,4.41-4.41,4.41-4.41-1.99-4.41-4.41"/>
      <path class="cls-23" d="M236.67,131.83c0-2.42,1.98-4.41,4.41-4.41s4.41,1.99,4.41,4.41-1.99,4.41-4.41,4.41-4.41-1.98-4.41-4.41"/>
      <path class="cls-3" d="M236.67,131.83c0-2.42,1.98-4.41,4.41-4.41s4.41,1.99,4.41,4.41-1.99,4.41-4.41,4.41-4.41-1.98-4.41-4.41"/>
      <path class="cls-23" d="M274.24,134.98c0-2.43,1.99-4.41,4.41-4.41s4.41,1.98,4.41,4.41-1.98,4.41-4.41,4.41-4.41-1.99-4.41-4.41"/>
      <path class="cls-3" d="M274.24,134.98c0-2.43,1.99-4.41,4.41-4.41s4.41,1.98,4.41,4.41-1.98,4.41-4.41,4.41-4.41-1.99-4.41-4.41"/>
      <path class="cls-23" d="M186.89,212.61c0-2.43,1.98-4.41,4.41-4.41s4.41,1.98,4.41,4.41-1.99,4.4-4.41,4.4-4.41-1.98-4.41-4.4"/>
      <path class="cls-3" d="M186.89,212.61c0-2.43,1.98-4.41,4.41-4.41s4.41,1.98,4.41,4.41-1.99,4.4-4.41,4.4-4.41-1.98-4.41-4.4"/>
      <path class="cls-23" d="M166.54,241.98c0-2.43,1.98-4.41,4.4-4.41s4.41,1.98,4.41,4.41-1.98,4.41-4.41,4.41-4.4-1.99-4.4-4.41"/>
      <path class="cls-3" d="M166.54,241.98c0-2.43,1.98-4.41,4.4-4.41s4.41,1.98,4.41,4.41-1.98,4.41-4.41,4.41-4.4-1.99-4.4-4.41"/>
      <polygon class="cls-20" points="66.87 299.35 70.93 296.08 75 292.81 79.06 289.54 83.13 286.27 87.19 283 91.25 279.73 95.32 276.46 99.38 273.19 103.45 269.92 107.51 266.64 111.58 263.37 115.64 260.09 119.71 256.82 123.77 253.54 127.83 250.26 131.9 246.98 135.96 243.7 140.03 240.42 144.09 237.13 148.16 233.84 152.22 230.55 156.29 227.26 160.35 223.97 164.41 220.67 168.48 217.37 172.54 214.07 176.61 210.76 180.67 207.45 184.74 204.13 188.8 200.81 192.87 197.48 196.93 194.15 200.99 190.8 205.06 187.45 209.12 184.09 213.19 180.73 217.25 177.35 221.32 173.96 225.38 170.55 229.45 167.14 233.51 163.71 237.57 160.26 241.64 156.81 245.7 153.33 249.77 149.84 253.83 146.34 257.9 142.83 261.96 139.3 266.03 135.75 270.09 132.2 274.15 128.64 278.22 125.06 282.28 121.48 286.35 117.89 290.41 114.29 294.48 110.68 298.54 107.07 302.61 103.46 306.67 99.83 310.73 96.21 314.8 92.58 318.86 88.94 322.93 85.31 326.99 81.67 331.06 78.02 335.12 74.38 339.19 70.73 343.25 67.08 347.31 63.43 351.38 59.78 355.44 56.12 359.51 52.47 363.57 48.81 367.64 45.15 371.7 41.49 375.77 37.83 379.83 34.17 383.89 30.51 387.96 26.84 387.96 43.15 383.89 46.42 379.83 49.69 375.77 52.96 371.7 56.24 367.64 59.51 363.57 62.79 359.51 66.07 355.44 69.35 351.38 72.63 347.31 75.91 343.25 79.19 339.19 82.48 335.12 85.77 331.06 89.06 326.99 92.35 322.93 95.64 318.86 98.94 314.8 102.24 310.73 105.55 306.67 108.86 302.61 112.17 298.54 115.49 294.48 118.81 290.41 122.14 286.35 125.48 282.28 128.82 278.22 132.17 274.15 135.53 270.09 138.9 266.03 142.29 261.96 145.68 257.9 149.08 253.83 152.5 249.77 155.94 245.7 159.38 241.64 162.84 237.57 166.32 233.51 169.81 229.45 173.32 225.38 176.84 221.32 180.37 217.25 183.91 213.19 187.47 209.12 191.04 205.06 194.61 200.99 198.2 196.93 201.79 192.87 205.39 188.8 209 184.74 212.61 180.67 216.23 176.61 219.85 172.54 223.48 168.48 227.11 164.41 230.74 160.35 234.38 156.29 238.02 152.22 241.67 148.16 245.31 144.09 248.96 140.03 252.61 135.96 256.26 131.9 259.91 127.83 263.57 123.77 267.23 119.71 270.88 115.64 274.54 111.58 278.2 107.51 281.86 103.45 285.52 99.38 289.19 95.32 292.85 91.25 296.51 87.19 300.18 83.13 303.84 79.06 307.51 75 311.17 70.93 314.84 66.87 318.51 66.87 299.35"/>
      <polyline class="cls-1" points="66.87 308.93 70.93 305.46 75 301.99 79.06 298.53 83.13 295.06 87.19 291.59 91.25 288.12 95.32 284.66 99.38 281.19 103.45 277.72 107.51 274.25 111.58 270.79 115.64 267.32 119.71 263.85 123.77 260.38 127.83 256.92 131.9 253.45 135.96 249.98 140.03 246.51 144.09 243.05 148.16 239.58 152.22 236.11 156.29 232.64 160.35 229.18 164.41 225.71 168.48 222.24 172.54 218.77 176.61 215.3 180.67 211.84 184.74 208.37 188.8 204.9 192.87 201.43 196.93 197.97 200.99 194.5 205.06 191.03 209.12 187.56 213.19 184.1 217.25 180.63 221.32 177.16 225.38 173.69 229.45 170.23 233.51 166.76 237.57 163.29 241.64 159.82 245.7 156.36 249.77 152.89 253.83 149.42 257.9 145.95 261.96 142.49 266.03 139.02 270.09 135.55 274.15 132.08 278.22 128.62 282.28 125.15 286.35 121.68 290.41 118.21 294.48 114.75 298.54 111.28 302.61 107.81 306.67 104.34 310.73 100.88 314.8 97.41 318.86 93.94 322.93 90.47 326.99 87.01 331.06 83.54 335.12 80.07 339.19 76.6 343.25 73.14 347.31 69.67 351.38 66.2 355.44 62.73 359.51 59.27 363.57 55.8 367.64 52.33 371.7 48.86 375.77 45.4 379.83 41.93 383.89 38.46 387.96 34.99"/>
      <text class="cls-13" transform="translate(77.54 25.99) scale(.91 1)"><tspan x="0" y="0" xml:space="preserve">y =  0.007 x −  0.018 </tspan></text>
      <text class="cls-11" transform="translate(76.86 56.32) scale(.96 1)"><tspan x="0" y="0" xml:space="preserve">R² =  0.90</tspan></text>
      <rect class="cls-4" x="50.81" y=".24" width="353.2" height="333.43"/>
    </g>
    <text class="cls-7" transform="translate(26.42 338.27)"><tspan x="0" y="0">3.0</tspan></text>
    <text class="cls-7" transform="translate(26.42 233.37)"><tspan x="0" y="0">4.0</tspan></text>
    <text class="cls-7" transform="translate(26.42 128.46)"><tspan x="0" y="0">5.0</tspan></text>
    <text class="cls-7" transform="translate(26.42 23.56)"><tspan x="0" y="0">6.0</tspan></text>
    <line class="cls-2" x1="48.07" y1="333.24" x2="50.81" y2="333.24"/>
    <line class="cls-2" x1="48.07" y1="228.34" x2="50.81" y2="228.34"/>
    <line class="cls-2" x1="48.07" y1="123.44" x2="50.81" y2="123.44"/>
    <line class="cls-2" x1="48.07" y1="18.54" x2="50.81" y2="18.54"/>
    <line class="cls-2" x1="91.23" y1="336.41" x2="91.23" y2="333.67"/>
    <line class="cls-2" x1="176.03" y1="336.41" x2="176.03" y2="333.67"/>
    <line class="cls-2" x1="260.84" y1="336.41" x2="260.84" y2="333.67"/>
    <line class="cls-2" x1="345.64" y1="336.41" x2="345.64" y2="333.67"/>
    <text class="cls-7" transform="translate(79.55 348.65)"><tspan x="0" y="0">500</tspan></text>
    <text class="cls-7" transform="translate(164.36 348.65)"><tspan x="0" y="0">600</tspan></text>
    <text class="cls-7" transform="translate(249.16 348.65)"><tspan x="0" y="0">700</tspan></text>
    <text class="cls-7" transform="translate(333.95 348.65)"><tspan x="0" y="0">800</tspan></text>
    <text class="cls-8" transform="translate(161.22 372.08)"><tspan x="0" y="0">Pixel length</tspan></text>
    <text class="cls-8" transform="translate(20.6 245.05) rotate(-90)"><tspan x="0" y="0">Actual length</tspan></text>
    <text class="cls-8" transform="translate(216.2 318.4)"><tspan x="0" y="0">(a)</tspan></text>
    <text class="cls-8" transform="translate(631 318.4)"><tspan x="0" y="0">(b)</tspan></text>
  </g>
</svg>